<svg xmlns="http://www.w3.org/2000/svg" xmlns:xlink="http://www.w3.org/1999/xlink" width="163" zoomAndPan="magnify" viewBox="0 0 122.25 84.749997" height="113" preserveAspectRatio="xMidYMid meet" version="1.0"><defs><clipPath id="60998094e4"><path d="M 108.503906 70.882812 L 121.175781 70.882812 L 121.175781 83.554688 L 108.503906 83.554688 Z M 108.503906 70.882812 " clip-rule="nonzero"/></clipPath><clipPath id="73c7bcc826"><path d="M 0 16 L 48 16 L 48 64.242188 L 0 64.242188 Z M 0 16 " clip-rule="nonzero"/></clipPath><clipPath id="24016edf9c"><path d="M 34 0.132812 L 67 0.132812 L 67 39 L 34 39 Z M 34 0.132812 " clip-rule="nonzero"/></clipPath></defs><g clip-path="url(#60998094e4)"><path fill="#ff66c4" d="M 121.328125 77.289062 C 121.328125 77.710938 121.285156 78.128906 121.203125 78.542969 C 121.121094 78.953125 121 79.355469 120.839844 79.746094 C 120.679688 80.132812 120.480469 80.503906 120.246094 80.851562 C 120.011719 81.203125 119.746094 81.527344 119.449219 81.824219 C 119.152344 82.121094 118.828125 82.386719 118.476562 82.621094 C 118.128906 82.855469 117.757812 83.054688 117.371094 83.214844 C 116.980469 83.375 116.578125 83.496094 116.167969 83.578125 C 115.753906 83.660156 115.335938 83.703125 114.914062 83.703125 C 114.496094 83.703125 114.078125 83.660156 113.664062 83.578125 C 113.253906 83.496094 112.851562 83.375 112.460938 83.214844 C 112.074219 83.054688 111.703125 82.855469 111.355469 82.621094 C 111.003906 82.386719 110.679688 82.121094 110.382812 81.824219 C 110.085938 81.527344 109.820312 81.203125 109.585938 80.851562 C 109.351562 80.503906 109.152344 80.132812 108.992188 79.746094 C 108.832031 79.355469 108.710938 78.953125 108.628906 78.542969 C 108.546875 78.128906 108.503906 77.710938 108.503906 77.289062 C 108.503906 76.871094 108.546875 76.453125 108.628906 76.039062 C 108.710938 75.625 108.832031 75.226562 108.992188 74.835938 C 109.152344 74.449219 109.351562 74.078125 109.585938 73.726562 C 109.820312 73.378906 110.085938 73.054688 110.382812 72.757812 C 110.679688 72.460938 111.003906 72.191406 111.355469 71.960938 C 111.703125 71.726562 112.074219 71.527344 112.460938 71.367188 C 112.851562 71.207031 113.253906 71.085938 113.664062 71 C 114.078125 70.917969 114.496094 70.878906 114.914062 70.878906 C 115.335938 70.878906 115.753906 70.917969 116.167969 71 C 116.578125 71.085938 116.980469 71.207031 117.371094 71.367188 C 117.757812 71.527344 118.128906 71.726562 118.476562 71.960938 C 118.828125 72.191406 119.152344 72.460938 119.449219 72.757812 C 119.746094 73.054688 120.011719 73.378906 120.246094 73.726562 C 120.480469 74.078125 120.679688 74.449219 120.839844 74.835938 C 121 75.226562 121.121094 75.625 121.203125 76.039062 C 121.285156 76.453125 121.328125 76.871094 121.328125 77.289062 Z M 121.328125 77.289062 " fill-opacity="1" fill-rule="nonzero"/></g><g clip-path="url(#73c7bcc826)"><path fill="#d9d9d9" d="M 46.828125 39.6875 L 24.78125 39.6875 L 24.78125 34.398438 C 25.359375 34.59375 25.964844 34.695312 26.585938 34.695312 C 28.074219 34.695312 29.472656 34.117188 30.527344 33.0625 C 31.582031 32.007812 32.160156 30.609375 32.160156 29.121094 C 32.160156 27.632812 31.585938 26.234375 30.539062 25.183594 C 29.496094 24.132812 28.101562 23.550781 26.613281 23.542969 C 25.980469 23.539062 25.367188 23.640625 24.78125 23.839844 L 24.78125 17.640625 C 24.78125 17.140625 24.375 16.730469 23.871094 16.730469 L 15.832031 16.730469 C 15.46875 16.730469 15.144531 16.945312 14.996094 17.277344 C 14.851562 17.605469 14.917969 17.992188 15.160156 18.257812 C 15.796875 18.949219 16.148438 19.847656 16.148438 20.789062 C 16.152344 21.785156 15.761719 22.730469 15.054688 23.445312 C 14.34375 24.15625 13.402344 24.550781 12.402344 24.554688 C 12.398438 24.554688 12.398438 24.554688 12.394531 24.554688 C 11.394531 24.554688 10.453125 24.164062 9.742188 23.457031 C 9.03125 22.746094 8.640625 21.800781 8.640625 20.796875 C 8.640625 19.855469 8.992188 18.953125 9.628906 18.257812 C 9.875 17.992188 9.9375 17.605469 9.792969 17.277344 C 9.648438 16.945312 9.320312 16.730469 8.957031 16.730469 L 4.03125 16.730469 C 1.8125 16.730469 0.0078125 18.535156 0.0078125 20.753906 L 0.0078125 48.136719 C 0.0078125 48.46875 0.1875 48.773438 0.480469 48.933594 C 0.773438 49.09375 1.128906 49.082031 1.40625 48.902344 C 2.023438 48.511719 2.734375 48.308594 3.464844 48.316406 C 4.464844 48.328125 5.398438 48.722656 6.097656 49.429688 C 6.792969 50.136719 7.179688 51.074219 7.179688 52.074219 C 7.179688 54.144531 5.492188 55.828125 3.421875 55.828125 C 2.707031 55.828125 2.007812 55.625 1.40625 55.242188 C 1.128906 55.0625 0.773438 55.050781 0.480469 55.210938 C 0.1875 55.371094 0.0078125 55.679688 0.0078125 56.011719 L 0.0078125 60.4375 C 0.0078125 62.65625 1.8125 64.460938 4.03125 64.460938 L 43.714844 64.460938 C 45.933594 64.460938 47.738281 62.65625 47.738281 60.4375 L 47.738281 55.773438 C 47.738281 55.425781 47.539062 55.109375 47.230469 54.957031 C 46.917969 54.804688 46.546875 54.839844 46.269531 55.050781 C 45.609375 55.558594 44.820312 55.828125 43.984375 55.828125 C 41.914062 55.828125 40.230469 54.144531 40.230469 52.074219 C 40.230469 51.070312 40.617188 50.128906 41.320312 49.421875 C 42.023438 48.714844 42.960938 48.324219 43.964844 48.316406 C 43.972656 48.316406 43.976562 48.316406 43.984375 48.316406 C 44.820312 48.316406 45.609375 48.585938 46.269531 49.09375 C 46.546875 49.304688 46.917969 49.34375 47.230469 49.191406 C 47.539062 49.035156 47.738281 48.71875 47.738281 48.371094 L 47.738281 40.597656 C 47.738281 40.09375 47.328125 39.6875 46.828125 39.6875 Z M 1.828125 20.753906 C 1.828125 19.542969 2.816406 18.554688 4.03125 18.554688 L 7.289062 18.554688 C 6.980469 19.253906 6.820312 20.015625 6.820312 20.796875 C 6.820312 22.289062 7.398438 23.691406 8.457031 24.746094 C 9.507812 25.796875 10.90625 26.375 12.394531 26.375 C 12.398438 26.375 12.402344 26.375 12.40625 26.375 C 13.890625 26.371094 15.289062 25.789062 16.34375 24.730469 C 17.398438 23.671875 17.976562 22.269531 17.972656 20.78125 C 17.96875 20.007812 17.808594 19.25 17.5 18.554688 L 22.960938 18.554688 L 22.960938 25.324219 C 22.960938 25.664062 23.152344 25.976562 23.457031 26.132812 C 23.757812 26.289062 24.125 26.261719 24.402344 26.0625 C 25.042969 25.605469 25.796875 25.363281 26.585938 25.363281 C 26.589844 25.363281 26.597656 25.363281 26.601562 25.363281 C 27.605469 25.371094 28.546875 25.761719 29.25 26.46875 C 29.953125 27.175781 30.339844 28.117188 30.339844 29.121094 C 30.339844 31.191406 28.65625 32.875 26.585938 32.875 C 25.796875 32.875 25.042969 32.632812 24.402344 32.175781 C 24.125 31.976562 23.757812 31.949219 23.457031 32.105469 C 23.152344 32.261719 22.960938 32.574219 22.960938 32.917969 L 22.960938 39.6875 L 1.828125 39.6875 Z M 1.828125 60.4375 L 1.828125 57.417969 C 2.34375 57.570312 2.878906 57.648438 3.421875 57.648438 C 4.914062 57.648438 6.3125 57.070312 7.367188 56.015625 C 8.417969 54.964844 9 53.5625 9 52.074219 C 9 50.59375 8.429688 49.199219 7.390625 48.148438 C 6.355469 47.101562 4.96875 46.511719 3.488281 46.496094 C 2.921875 46.492188 2.363281 46.570312 1.828125 46.726562 L 1.828125 41.507812 L 22.960938 41.507812 L 22.960938 46.636719 C 22.574219 46.546875 22.179688 46.5 21.78125 46.496094 C 21.761719 46.496094 21.746094 46.496094 21.726562 46.496094 C 20.253906 46.496094 18.863281 47.070312 17.808594 48.113281 C 16.742188 49.167969 16.152344 50.570312 16.152344 52.066406 C 16.148438 53.554688 16.726562 54.957031 17.78125 56.015625 C 18.835938 57.070312 20.238281 57.648438 21.726562 57.648438 C 22.144531 57.648438 22.558594 57.601562 22.960938 57.511719 L 22.960938 62.640625 L 4.03125 62.640625 C 2.816406 62.640625 1.828125 61.652344 1.828125 60.4375 Z M 45.914062 46.839844 C 45.304688 46.613281 44.65625 46.496094 43.984375 46.496094 C 43.976562 46.496094 43.964844 46.496094 43.957031 46.496094 C 42.46875 46.503906 41.074219 47.085938 40.027344 48.136719 C 38.984375 49.1875 38.40625 50.585938 38.40625 52.074219 C 38.40625 53.5625 38.988281 54.964844 40.042969 56.015625 C 41.09375 57.070312 42.496094 57.648438 43.984375 57.648438 C 44.652344 57.648438 45.304688 57.535156 45.914062 57.308594 L 45.914062 60.4375 C 45.914062 61.652344 44.929688 62.640625 43.714844 62.640625 L 24.785156 62.640625 L 24.785156 56.21875 C 24.785156 55.898438 24.617188 55.605469 24.34375 55.441406 C 24.074219 55.273438 23.734375 55.261719 23.453125 55.410156 C 22.917969 55.6875 22.335938 55.828125 21.726562 55.828125 C 20.722656 55.828125 19.78125 55.4375 19.070312 54.726562 C 18.359375 54.015625 17.972656 53.070312 17.972656 52.066406 C 17.972656 51.0625 18.371094 50.121094 19.089844 49.40625 C 19.808594 48.695312 20.757812 48.308594 21.761719 48.316406 C 22.359375 48.324219 22.925781 48.464844 23.453125 48.738281 C 23.734375 48.882812 24.074219 48.871094 24.34375 48.707031 C 24.617188 48.542969 24.785156 48.246094 24.785156 47.929688 L 24.785156 41.507812 L 45.914062 41.507812 Z M 45.914062 46.839844 " fill-opacity="1" fill-rule="nonzero"/></g><path fill="#d9d9d9" d="M 58.445312 9.773438 C 58.683594 9.359375 58.816406 8.878906 58.816406 8.367188 C 58.816406 6.800781 57.542969 5.523438 55.972656 5.523438 C 54.40625 5.523438 53.128906 6.800781 53.128906 8.367188 C 53.128906 8.878906 53.265625 9.359375 53.5 9.773438 C 52.242188 10.597656 51.460938 12.007812 51.460938 13.546875 L 51.460938 14.59375 C 51.460938 14.988281 51.78125 15.308594 52.179688 15.308594 L 59.769531 15.308594 C 60.164062 15.308594 60.484375 14.988281 60.484375 14.59375 L 60.484375 13.546875 C 60.484375 12.632812 60.210938 11.753906 59.699219 11 C 59.359375 10.511719 58.9375 10.09375 58.445312 9.773438 Z M 55.972656 6.953125 C 56.753906 6.953125 57.386719 7.589844 57.386719 8.367188 C 57.386719 9.148438 56.753906 9.78125 55.972656 9.78125 C 55.195312 9.78125 54.5625 9.148438 54.5625 8.367188 C 54.558594 7.589844 55.195312 6.953125 55.972656 6.953125 Z M 59.054688 13.878906 L 52.894531 13.878906 L 52.894531 13.546875 C 52.894531 12.394531 53.53125 11.351562 54.539062 10.824219 C 54.960938 11.070312 55.449219 11.210938 55.972656 11.210938 C 56.496094 11.210938 56.988281 11.070312 57.410156 10.824219 C 58.417969 11.351562 59.054688 12.390625 59.054688 13.546875 Z M 59.054688 13.878906 " fill-opacity="1" fill-rule="nonzero"/><g clip-path="url(#24016edf9c)"><path fill="#d9d9d9" d="M 66.339844 12.449219 L 64.765625 11.59375 L 64.765625 10.527344 L 66.339844 9.671875 C 66.671875 9.492188 66.824219 9.101562 66.710938 8.742188 L 66.019531 6.621094 C 65.902344 6.265625 65.550781 6.039062 65.175781 6.089844 L 63.398438 6.324219 L 62.773438 5.460938 L 63.542969 3.84375 C 63.707031 3.503906 63.601562 3.097656 63.296875 2.875 L 61.492188 1.5625 C 61.1875 1.34375 60.769531 1.371094 60.496094 1.628906 L 59.195312 2.863281 L 58.183594 2.535156 L 57.855469 0.773438 C 57.789062 0.402344 57.464844 0.132812 57.089844 0.132812 L 54.859375 0.132812 C 54.480469 0.132812 54.160156 0.402344 54.089844 0.773438 L 53.761719 2.535156 L 52.75 2.863281 L 51.449219 1.628906 C 51.175781 1.371094 50.757812 1.34375 50.453125 1.5625 L 48.648438 2.875 C 48.34375 3.097656 48.242188 3.503906 48.402344 3.84375 L 49.175781 5.460938 L 48.546875 6.324219 L 46.769531 6.089844 C 46.398438 6.039062 46.042969 6.265625 45.925781 6.621094 L 45.648438 7.476562 L 35.253906 7.476562 C 34.78125 7.476562 34.394531 7.863281 34.394531 8.335938 L 34.394531 16.113281 C 34.394531 16.441406 34.582031 16.738281 34.875 16.882812 C 35.167969 17.027344 35.519531 16.992188 35.777344 16.792969 C 36.449219 16.277344 37.25 16.007812 38.097656 16.007812 C 40.195312 16.007812 41.902344 17.714844 41.902344 19.8125 C 41.902344 21.914062 40.195312 23.621094 38.097656 23.621094 C 37.25 23.621094 36.449219 23.347656 35.777344 22.832031 C 35.519531 22.632812 35.167969 22.597656 34.875 22.742188 C 34.582031 22.886719 34.394531 23.1875 34.394531 23.515625 L 34.394531 31.289062 C 34.394531 31.765625 34.78125 32.148438 35.253906 32.148438 L 41.675781 32.148438 C 41.539062 32.625 41.46875 33.117188 41.46875 33.617188 C 41.46875 36.570312 43.871094 38.972656 46.824219 38.972656 C 49.78125 38.972656 52.183594 36.570312 52.183594 33.617188 C 52.183594 33.117188 52.113281 32.625 51.976562 32.148438 L 58.207031 32.148438 C 58.683594 32.148438 59.066406 31.765625 59.066406 31.289062 L 59.066406 25.1875 C 59.488281 25.285156 59.921875 25.339844 60.355469 25.339844 C 63.398438 25.339844 65.878906 22.859375 65.878906 19.8125 C 65.878906 18.859375 65.628906 17.917969 65.164062 17.09375 C 64.917969 16.660156 64.613281 16.261719 64.261719 15.910156 L 65.175781 16.03125 C 65.546875 16.078125 65.902344 15.855469 66.019531 15.496094 L 66.710938 13.375 C 66.824219 13.015625 66.671875 12.628906 66.339844 12.449219 Z M 60.355469 23.621094 C 59.738281 23.621094 59.148438 23.476562 58.605469 23.195312 C 58.335938 23.058594 58.019531 23.070312 57.761719 23.222656 C 57.507812 23.378906 57.351562 23.660156 57.351562 23.957031 L 57.351562 30.433594 L 50.675781 30.433594 C 50.367188 30.433594 50.082031 30.597656 49.929688 30.871094 C 49.777344 31.140625 49.78125 31.46875 49.941406 31.734375 C 50.285156 32.300781 50.464844 32.953125 50.464844 33.617188 C 50.464844 35.625 48.832031 37.257812 46.824219 37.257812 C 44.820312 37.257812 43.1875 35.625 43.1875 33.617188 C 43.1875 32.953125 43.367188 32.300781 43.710938 31.734375 C 43.871094 31.46875 43.875 31.140625 43.722656 30.871094 C 43.570312 30.597656 43.285156 30.433594 42.976562 30.433594 L 36.113281 30.433594 L 36.113281 24.972656 C 36.738281 25.214844 37.40625 25.339844 38.097656 25.339844 C 41.144531 25.339844 43.621094 22.859375 43.621094 19.8125 C 43.621094 16.765625 41.144531 14.289062 38.097656 14.289062 C 37.40625 14.289062 36.738281 14.414062 36.113281 14.652344 L 36.113281 9.195312 L 45.226562 9.195312 C 45.285156 9.394531 45.414062 9.566406 45.605469 9.671875 L 47.183594 10.527344 L 47.183594 11.59375 L 45.605469 12.449219 C 45.277344 12.628906 45.121094 13.015625 45.238281 13.375 L 45.925781 15.496094 C 46.042969 15.855469 46.398438 16.078125 46.769531 16.03125 L 48.546875 15.796875 L 49.175781 16.65625 L 48.402344 18.277344 C 48.242188 18.617188 48.34375 19.023438 48.648438 19.242188 L 50.453125 20.554688 C 50.757812 20.777344 51.175781 20.75 51.449219 20.488281 L 52.75 19.253906 L 53.761719 19.585938 L 54.089844 21.347656 C 54.160156 21.71875 54.480469 21.984375 54.859375 21.984375 L 57.089844 21.984375 C 57.464844 21.984375 57.789062 21.71875 57.855469 21.347656 L 58.183594 19.585938 L 59.195312 19.253906 L 60.496094 20.488281 C 60.769531 20.75 61.1875 20.777344 61.492188 20.554688 L 63.296875 19.242188 C 63.601562 19.023438 63.707031 18.617188 63.542969 18.277344 L 62.949219 17.023438 C 63.71875 17.738281 64.160156 18.738281 64.160156 19.8125 C 64.160156 21.914062 62.453125 23.621094 60.355469 23.621094 Z M 64.734375 14.398438 L 63.140625 14.1875 C 62.859375 14.148438 62.578125 14.269531 62.410156 14.503906 L 61.238281 16.117188 C 61.066406 16.347656 61.039062 16.652344 61.164062 16.910156 L 61.855469 18.363281 L 61.101562 18.910156 L 59.933594 17.804688 C 59.726562 17.605469 59.429688 17.539062 59.15625 17.628906 L 57.257812 18.242188 C 56.988281 18.332031 56.785156 18.5625 56.734375 18.84375 L 56.441406 20.425781 L 55.507812 20.425781 L 55.214844 18.84375 C 55.160156 18.5625 54.960938 18.332031 54.6875 18.242188 L 52.792969 17.628906 C 52.519531 17.539062 52.21875 17.605469 52.011719 17.804688 L 50.847656 18.910156 L 50.089844 18.363281 L 50.785156 16.910156 C 50.90625 16.652344 50.878906 16.347656 50.710938 16.117188 L 49.539062 14.503906 C 49.371094 14.269531 49.089844 14.148438 48.804688 14.1875 L 47.210938 14.398438 L 46.921875 13.511719 L 48.335938 12.742188 C 48.585938 12.605469 48.742188 12.34375 48.742188 12.054688 L 48.742188 10.0625 C 48.742188 9.777344 48.585938 9.511719 48.335938 9.375 L 46.921875 8.609375 L 47.210938 7.722656 L 48.804688 7.933594 C 49.089844 7.96875 49.371094 7.847656 49.539062 7.617188 L 50.710938 6.003906 C 50.878906 5.773438 50.90625 5.464844 50.785156 5.207031 L 50.089844 3.757812 L 50.847656 3.207031 L 52.011719 4.316406 C 52.21875 4.511719 52.519531 4.582031 52.792969 4.492188 L 54.6875 3.875 C 54.960938 3.785156 55.160156 3.558594 55.214844 3.273438 L 55.507812 1.695312 L 56.441406 1.695312 L 56.734375 3.273438 C 56.785156 3.558594 56.988281 3.785156 57.257812 3.875 L 59.15625 4.492188 C 59.429688 4.582031 59.726562 4.511719 59.933594 4.316406 L 61.101562 3.207031 L 61.855469 3.757812 L 61.164062 5.207031 C 61.039062 5.464844 61.066406 5.773438 61.238281 6.003906 L 62.410156 7.617188 C 62.578125 7.847656 62.859375 7.96875 63.140625 7.933594 L 64.734375 7.722656 L 65.023438 8.609375 L 63.609375 9.375 C 63.359375 9.511719 63.203125 9.777344 63.203125 10.0625 L 63.203125 12.054688 C 63.203125 12.34375 63.359375 12.605469 63.609375 12.742188 L 65.023438 13.507812 Z M 64.734375 14.398438 " fill-opacity="1" fill-rule="nonzero"/></g></svg>