<svg xmlns="http://www.w3.org/2000/svg" xmlns:xlink="http://www.w3.org/1999/xlink" width="188" zoomAndPan="magnify" viewBox="0 0 141 93.749996" height="125" preserveAspectRatio="xMidYMid meet" version="1.0"><defs><clipPath id="db4521e7fb"><path d="M 0.1875 79.886719 L 12.902344 79.886719 L 12.902344 92.605469 L 0.1875 92.605469 Z M 0.1875 79.886719 " clip-rule="nonzero"/></clipPath><clipPath id="9c0d59562a"><path d="M 86.433594 0 L 140.292969 0 L 140.292969 53.855469 L 86.433594 53.855469 Z M 86.433594 0 " clip-rule="nonzero"/></clipPath></defs><g clip-path="url(#db4521e7fb)"><path fill="#ef4136" d="M 12.902344 86.242188 C 12.902344 86.660156 12.863281 87.074219 12.78125 87.484375 C 12.699219 87.894531 12.578125 88.289062 12.417969 88.675781 C 12.261719 89.0625 12.0625 89.429688 11.832031 89.777344 C 11.601562 90.121094 11.335938 90.445312 11.042969 90.738281 C 10.746094 91.035156 10.425781 91.296875 10.078125 91.53125 C 9.730469 91.761719 9.363281 91.957031 8.980469 92.117188 C 8.59375 92.277344 8.195312 92.398438 7.785156 92.480469 C 7.375 92.5625 6.964844 92.601562 6.546875 92.601562 C 6.128906 92.601562 5.714844 92.5625 5.304688 92.480469 C 4.894531 92.398438 4.5 92.277344 4.113281 92.117188 C 3.726562 91.957031 3.359375 91.761719 3.011719 91.53125 C 2.667969 91.296875 2.34375 91.035156 2.050781 90.738281 C 1.753906 90.445312 1.492188 90.121094 1.257812 89.777344 C 1.027344 89.429688 0.832031 89.0625 0.671875 88.675781 C 0.511719 88.289062 0.390625 87.894531 0.308594 87.484375 C 0.226562 87.074219 0.1875 86.660156 0.1875 86.242188 C 0.1875 85.824219 0.226562 85.414062 0.308594 85.003906 C 0.390625 84.59375 0.511719 84.195312 0.671875 83.808594 C 0.832031 83.425781 1.027344 83.058594 1.257812 82.710938 C 1.492188 82.363281 1.753906 82.042969 2.050781 81.746094 C 2.34375 81.453125 2.667969 81.1875 3.011719 80.957031 C 3.359375 80.726562 3.726562 80.527344 4.113281 80.371094 C 4.5 80.210938 4.894531 80.089844 5.304688 80.007812 C 5.714844 79.925781 6.128906 79.886719 6.546875 79.886719 C 6.964844 79.886719 7.375 79.925781 7.785156 80.007812 C 8.195312 80.089844 8.59375 80.210938 8.980469 80.371094 C 9.363281 80.527344 9.730469 80.726562 10.078125 80.957031 C 10.425781 81.1875 10.746094 81.453125 11.042969 81.746094 C 11.335938 82.042969 11.601562 82.363281 11.832031 82.710938 C 12.0625 83.058594 12.261719 83.425781 12.417969 83.808594 C 12.578125 84.195312 12.699219 84.59375 12.78125 85.003906 C 12.863281 85.414062 12.902344 85.824219 12.902344 86.242188 Z M 12.902344 86.242188 " fill-opacity="1" fill-rule="nonzero"/></g><g clip-path="url(#9c0d59562a)"><path fill="#a6a6a6" d="M 120.164062 38.941406 L 120.160156 38.941406 C 109.863281 38.941406 101.523438 30.617188 101.523438 20.3125 C 101.523438 10.042969 109.886719 1.683594 120.164062 1.683594 C 130.457031 1.683594 138.789062 10.011719 138.789062 20.3125 C 138.789062 30.582031 130.429688 38.941406 120.164062 38.941406 Z M 105.898438 38.109375 L 102.359375 34.570312 L 104.128906 32.796875 C 105.199219 34.160156 106.304688 35.269531 107.671875 36.335938 Z M 103.707031 43.390625 L 97.078125 36.761719 L 99.621094 34.21875 C 99.71875 34.320312 106.546875 41.148438 106.25 40.847656 Z M 96.132812 50.96875 C 94.296875 52.800781 91.332031 52.800781 89.496094 50.96875 C 87.664062 49.136719 87.664062 46.171875 89.496094 44.335938 L 96.476562 37.355469 L 103.109375 43.988281 Z M 120.164062 -0.00390625 C 108.957031 -0.00390625 99.835938 9.109375 99.835938 20.308594 C 99.835938 24.316406 100.988281 28.136719 103.132812 31.40625 L 101.164062 33.375 L 100.214844 32.425781 C 99.886719 32.09375 99.351562 32.09375 99.019531 32.425781 L 88.304688 43.144531 C 85.8125 45.632812 85.8125 49.667969 88.304688 52.164062 C 90.796875 54.652344 94.832031 54.652344 97.320312 52.164062 L 108.039062 41.445312 C 108.199219 41.285156 108.289062 41.074219 108.289062 40.847656 C 108.289062 40.625 108.199219 40.40625 108.039062 40.25 L 107.09375 39.304688 L 109.0625 37.335938 C 112.332031 39.476562 116.15625 40.628906 120.164062 40.628906 C 131.367188 40.628906 140.476562 31.511719 140.476562 20.3125 C 140.476562 9.085938 131.390625 -0.00390625 120.164062 -0.00390625 " fill-opacity="1" fill-rule="nonzero"/></g><path fill="#a6a6a6" d="M 130.300781 31.613281 C 129.476562 28.945312 127.644531 26.722656 125.164062 25.40625 C 125.574219 24.042969 126.496094 22.894531 127.753906 22.210938 C 129.304688 23.199219 131.429688 23.207031 133 22.203125 C 133.765625 22.621094 134.417969 23.230469 134.90625 23.96875 C 134.164062 26.96875 132.53125 29.609375 130.300781 31.613281 Z M 110.707031 32.21875 C 111.417969 29.582031 113.183594 27.371094 115.609375 26.09375 C 118.296875 27.898438 121.984375 27.90625 124.691406 26.09375 C 127.125 27.363281 128.890625 29.574219 129.601562 32.214844 C 127.007812 34.277344 123.71875 35.523438 120.148438 35.523438 C 116.679688 35.523438 113.390625 34.351562 110.707031 32.21875 Z M 105.402344 23.976562 C 105.890625 23.242188 106.535156 22.632812 107.304688 22.203125 C 108.875 23.207031 110.996094 23.199219 112.554688 22.203125 C 113.792969 22.882812 114.734375 24.046875 115.148438 25.398438 C 112.667969 26.730469 110.835938 28.949219 110.011719 31.613281 C 107.59375 29.441406 106.109375 26.835938 105.402344 23.976562 Z M 120.15625 5.101562 C 128.542969 5.101562 135.375 11.925781 135.375 20.3125 C 135.375 21.1875 135.28125 22.042969 135.136719 22.875 C 134.585938 22.234375 133.914062 21.707031 133.152344 21.335938 C 133.011719 21.269531 132.851562 21.285156 132.726562 21.375 C 131.34375 22.359375 129.378906 22.347656 128.03125 21.375 C 127.902344 21.285156 127.738281 21.269531 127.601562 21.339844 C 125.96875 22.140625 124.78125 23.589844 124.304688 25.328125 C 121.839844 27.023438 118.457031 27.023438 116.007812 25.335938 C 115.535156 23.582031 114.34375 22.132812 112.714844 21.339844 C 112.574219 21.269531 112.40625 21.285156 112.28125 21.375 C 110.914062 22.347656 108.957031 22.359375 107.578125 21.375 C 107.453125 21.285156 107.285156 21.269531 107.148438 21.339844 C 106.382812 21.714844 105.71875 22.242188 105.171875 22.882812 C 105.027344 22.035156 104.941406 21.183594 104.941406 20.3125 C 104.941406 11.921875 111.761719 5.101562 120.15625 5.101562 Z M 136.21875 20.3125 C 136.21875 11.460938 129.007812 4.253906 120.15625 4.253906 C 111.296875 4.253906 104.097656 11.457031 104.097656 20.3125 C 104.097656 28.984375 111.128906 36.367188 120.148438 36.367188 C 129.144531 36.367188 136.21875 29 136.21875 20.3125 " fill-opacity="1" fill-rule="nonzero"/><path fill="#a6a6a6" d="M 109.925781 16.230469 C 111.078125 16.230469 112.011719 17.160156 112.011719 18.308594 C 112.011719 19.457031 111.078125 20.386719 109.925781 20.386719 C 108.789062 20.386719 107.859375 19.457031 107.859375 18.308594 C 107.859375 17.160156 108.789062 16.230469 109.925781 16.230469 Z M 109.925781 21.230469 C 111.542969 21.230469 112.855469 19.921875 112.855469 18.308594 C 112.855469 16.695312 111.542969 15.386719 109.925781 15.386719 C 108.324219 15.386719 107.011719 16.695312 107.011719 18.308594 C 107.011719 19.921875 108.324219 21.230469 109.925781 21.230469 " fill-opacity="1" fill-rule="nonzero"/><path fill="#a6a6a6" d="M 120.15625 15.765625 C 122.316406 15.765625 124.078125 17.527344 124.078125 19.695312 C 124.078125 21.847656 122.316406 23.601562 120.15625 23.601562 C 117.992188 23.601562 116.234375 21.847656 116.234375 19.695312 C 116.234375 17.527344 117.996094 15.765625 120.15625 15.765625 Z M 120.15625 24.445312 C 122.785156 24.445312 124.921875 22.316406 124.921875 19.695312 C 124.921875 17.0625 122.785156 14.921875 120.15625 14.921875 C 117.523438 14.921875 115.390625 17.0625 115.390625 19.695312 C 115.390625 22.316406 117.523438 24.445312 120.15625 24.445312 " fill-opacity="1" fill-rule="nonzero"/><path fill="#a6a6a6" d="M 130.378906 16.230469 C 131.527344 16.230469 132.457031 17.160156 132.457031 18.308594 C 132.457031 19.457031 131.527344 20.386719 130.378906 20.386719 C 129.230469 20.386719 128.300781 19.457031 128.300781 18.308594 C 128.300781 17.160156 129.230469 16.230469 130.378906 16.230469 Z M 130.378906 21.230469 C 131.992188 21.230469 133.300781 19.921875 133.300781 18.308594 C 133.300781 16.695312 131.992188 15.386719 130.378906 15.386719 C 128.765625 15.386719 127.457031 16.695312 127.457031 18.308594 C 127.457031 19.921875 128.765625 21.230469 130.378906 21.230469 " fill-opacity="1" fill-rule="nonzero"/></svg>