<svg xmlns="http://www.w3.org/2000/svg" xmlns:xlink="http://www.w3.org/1999/xlink" width="1033" zoomAndPan="magnify" viewBox="0 0 774.75 249.749984" height="333" preserveAspectRatio="xMidYMid meet" version="1.0"><defs><g/><clipPath id="1b5ee62592"><path d="M 151.601562 102.648438 L 205.277344 102.648438 L 205.277344 156.324219 L 151.601562 156.324219 Z M 151.601562 102.648438 " clip-rule="nonzero"/></clipPath><clipPath id="1176a1902f"><path d="M 169.074219 134.871094 L 187.804688 134.871094 L 187.804688 236.84375 L 169.074219 236.84375 Z M 169.074219 134.871094 " clip-rule="nonzero"/></clipPath><clipPath id="e09b1c0621"><path d="M 164.347656 115.394531 L 192.535156 115.394531 L 192.535156 143.582031 L 164.347656 143.582031 Z M 164.347656 115.394531 " clip-rule="nonzero"/></clipPath><clipPath id="b17ee8110a"><path d="M 178.441406 115.394531 C 170.65625 115.394531 164.347656 121.703125 164.347656 129.488281 C 164.347656 137.269531 170.65625 143.582031 178.441406 143.582031 C 186.222656 143.582031 192.535156 137.269531 192.535156 129.488281 C 192.535156 121.703125 186.222656 115.394531 178.441406 115.394531 Z M 178.441406 115.394531 " clip-rule="nonzero"/></clipPath><clipPath id="13becaf25c"><path d="M 58 110 L 154 110 L 154 181 L 58 181 Z M 58 110 " clip-rule="nonzero"/></clipPath><clipPath id="f3e781cfa2"><path d="M 31.957031 130.230469 L 126.738281 61.558594 L 171.210938 122.933594 L 76.425781 191.609375 Z M 31.957031 130.230469 " clip-rule="nonzero"/></clipPath><clipPath id="b4593b21a3"><path d="M 31.957031 130.230469 L 126.738281 61.558594 L 171.210938 122.933594 L 76.425781 191.609375 Z M 31.957031 130.230469 " clip-rule="nonzero"/></clipPath><clipPath id="a784a32270"><path d="M 102 75 L 155 75 L 155 107 L 102 107 Z M 102 75 " clip-rule="nonzero"/></clipPath><clipPath id="d5a53fe4df"><path d="M 31.957031 130.230469 L 126.738281 61.558594 L 171.210938 122.933594 L 76.425781 191.609375 Z M 31.957031 130.230469 " clip-rule="nonzero"/></clipPath><clipPath id="13fcedf3ec"><path d="M 31.957031 130.230469 L 126.738281 61.558594 L 171.210938 122.933594 L 76.425781 191.609375 Z M 31.957031 130.230469 " clip-rule="nonzero"/></clipPath><clipPath id="3c8ce4aec8"><path d="M 206 120 L 293 120 L 293 187 L 206 187 Z M 206 120 " clip-rule="nonzero"/></clipPath><clipPath id="7815ef46fc"><path d="M 234.339844 74.972656 L 317.71875 143.382812 L 273.425781 197.367188 L 190.046875 128.960938 Z M 234.339844 74.972656 " clip-rule="nonzero"/></clipPath><clipPath id="d2ab32ad0b"><path d="M 317.664062 143.335938 L 234.28125 74.925781 L 189.988281 128.914062 L 273.371094 197.320312 Z M 317.664062 143.335938 " clip-rule="nonzero"/></clipPath><clipPath id="2de89d5c26"><path d="M 205 88 L 256 88 L 256 116 L 205 116 Z M 205 88 " clip-rule="nonzero"/></clipPath><clipPath id="a2f9429cce"><path d="M 234.339844 74.972656 L 317.71875 143.382812 L 273.425781 197.367188 L 190.046875 128.960938 Z M 234.339844 74.972656 " clip-rule="nonzero"/></clipPath><clipPath id="5ba0dfe1a8"><path d="M 317.664062 143.335938 L 234.28125 74.925781 L 189.988281 128.914062 L 273.371094 197.320312 Z M 317.664062 143.335938 " clip-rule="nonzero"/></clipPath><clipPath id="60e95e08a9"><path d="M 178 27 L 212 27 L 212 89 L 178 89 Z M 178 27 " clip-rule="nonzero"/></clipPath><clipPath id="3b63ebf7a1"><path d="M 101.378906 90.105469 L 108.964844 12.691406 L 237.078125 25.246094 L 229.492188 102.65625 Z M 101.378906 90.105469 " clip-rule="nonzero"/></clipPath><clipPath id="5024cb4f8f"><path d="M 101.378906 90.105469 L 108.964844 12.691406 L 237.078125 25.246094 L 229.492188 102.65625 Z M 101.378906 90.105469 " clip-rule="nonzero"/></clipPath><clipPath id="469b004f39"><path d="M 115 33 L 227 33 L 227 98 L 115 98 Z M 115 33 " clip-rule="nonzero"/></clipPath><clipPath id="71c163f448"><path d="M 101.378906 90.105469 L 108.964844 12.691406 L 237.078125 25.246094 L 229.492188 102.65625 Z M 101.378906 90.105469 " clip-rule="nonzero"/></clipPath><clipPath id="9e119825db"><path d="M 101.378906 90.105469 L 108.964844 12.691406 L 237.078125 25.246094 L 229.492188 102.65625 Z M 101.378906 90.105469 " clip-rule="nonzero"/></clipPath><clipPath id="f3cf3483b8"><path d="M 121 30 L 224 30 L 224 78 L 121 78 Z M 121 30 " clip-rule="nonzero"/></clipPath><clipPath id="c2b87b58ba"><path d="M 101.378906 90.105469 L 108.964844 12.691406 L 237.078125 25.246094 L 229.492188 102.65625 Z M 101.378906 90.105469 " clip-rule="nonzero"/></clipPath><clipPath id="4083e8de05"><path d="M 101.378906 90.105469 L 108.964844 12.691406 L 237.078125 25.246094 L 229.492188 102.65625 Z M 101.378906 90.105469 " clip-rule="nonzero"/></clipPath><clipPath id="f6eaf1ce2d"><path d="M 117 128 L 158 128 L 158 225 L 117 225 Z M 117 128 " clip-rule="nonzero"/></clipPath><clipPath id="ee1a0fc504"><path d="M 101.378906 139.527344 L 147.925781 127.957031 L 171.246094 221.769531 L 124.703125 233.339844 Z M 101.378906 139.527344 " clip-rule="nonzero"/></clipPath><clipPath id="1a45cc1872"><path d="M 147.890625 127.964844 L 101.347656 139.535156 L 124.667969 233.347656 L 171.214844 221.777344 Z M 147.890625 127.964844 " clip-rule="nonzero"/></clipPath><clipPath id="7b56ceafdb"><path d="M 120 178 L 139 178 L 139 218 L 120 218 Z M 120 178 " clip-rule="nonzero"/></clipPath><clipPath id="b47aad004a"><path d="M 101.378906 139.527344 L 147.925781 127.957031 L 171.246094 221.769531 L 124.703125 233.339844 Z M 101.378906 139.527344 " clip-rule="nonzero"/></clipPath><clipPath id="5afef6f1ad"><path d="M 147.890625 127.964844 L 101.347656 139.535156 L 124.667969 233.347656 L 171.214844 221.777344 Z M 147.890625 127.964844 " clip-rule="nonzero"/></clipPath><clipPath id="14e3c4f6fb"><path d="M 197 137 L 230 137 L 230 215 L 197 215 Z M 197 137 " clip-rule="nonzero"/></clipPath><clipPath id="dea0a37881"><path d="M 206.308594 137.472656 L 243.242188 147.5 L 223.058594 221.84375 L 186.125 211.816406 Z M 206.308594 137.472656 " clip-rule="nonzero"/></clipPath><clipPath id="cbdc41e1dd"><path d="M 206.308594 137.472656 L 243.242188 147.5 L 223.058594 221.84375 L 186.125 211.816406 Z M 206.308594 137.472656 " clip-rule="nonzero"/></clipPath><clipPath id="67d2def018"><path d="M 212 178 L 227 178 L 227 210 L 212 210 Z M 212 178 " clip-rule="nonzero"/></clipPath><clipPath id="d77eebb006"><path d="M 206.308594 137.472656 L 243.242188 147.5 L 223.058594 221.84375 L 186.125 211.816406 Z M 206.308594 137.472656 " clip-rule="nonzero"/></clipPath><clipPath id="f2eef4bdc3"><path d="M 206.308594 137.472656 L 243.242188 147.5 L 223.058594 221.84375 L 186.125 211.816406 Z M 206.308594 137.472656 " clip-rule="nonzero"/></clipPath></defs><g clip-path="url(#1b5ee62592)"><path fill="#000000" d="M 178.785156 111.058594 L 178.082031 111.058594 L 178.082031 102.648438 L 178.785156 102.648438 Z M 175.898438 111.222656 L 174.582031 102.917969 L 173.890625 103.03125 L 175.207031 111.339844 Z M 173.074219 111.851562 L 170.476562 103.847656 L 169.8125 104.066406 L 172.40625 112.066406 Z M 170.386719 112.910156 L 166.566406 105.421875 L 165.941406 105.742188 L 169.761719 113.230469 Z M 167.882812 114.367188 L 162.949219 107.570312 L 162.386719 107.976562 L 167.320312 114.777344 Z M 165.660156 116.207031 L 159.703125 110.265625 L 159.207031 110.765625 L 165.148438 116.707031 Z M 163.730469 118.367188 L 156.929688 113.421875 L 156.523438 113.984375 L 163.320312 118.929688 Z M 162.171875 120.808594 L 154.679688 116.988281 L 154.363281 117.613281 L 161.863281 121.433594 Z M 161.019531 123.453125 L 153.019531 120.859375 L 152.800781 121.523438 L 160.804688 124.121094 Z M 160.292969 126.253906 L 151.984375 124.9375 L 151.871094 125.628906 L 160.175781 126.945312 Z M 160.011719 129.140625 L 151.601562 129.140625 L 151.601562 129.84375 L 160.011719 129.84375 Z M 160.292969 132.71875 L 160.175781 132.03125 L 151.871094 133.347656 L 151.984375 134.035156 Z M 161.019531 135.519531 L 160.804688 134.855469 L 152.800781 137.449219 L 153.019531 138.113281 Z M 162.171875 138.164062 L 161.851562 137.539062 L 154.363281 141.359375 L 154.679688 141.984375 Z M 163.730469 140.605469 L 163.320312 140.042969 L 156.523438 144.988281 L 156.929688 145.550781 Z M 165.660156 142.765625 L 165.160156 142.265625 L 159.21875 148.210938 L 159.71875 148.707031 Z M 167.882812 144.605469 L 167.320312 144.195312 L 162.375 150.996094 L 162.9375 151.40625 Z M 170.386719 146.0625 L 169.761719 145.742188 L 165.941406 153.234375 L 166.566406 153.550781 Z M 173.074219 147.125 L 172.40625 146.90625 L 169.8125 154.90625 L 170.476562 155.125 Z M 175.898438 147.75 L 175.207031 147.636719 L 173.890625 155.941406 L 174.582031 156.058594 Z M 178.785156 147.917969 L 178.082031 147.917969 L 178.082031 156.324219 L 178.785156 156.324219 Z M 182.988281 155.941406 L 181.671875 147.636719 L 180.984375 147.75 L 182.300781 156.058594 Z M 187.066406 154.90625 L 184.472656 146.90625 L 183.808594 147.125 L 186.402344 155.125 Z M 190.9375 153.246094 L 187.117188 145.757812 L 186.492188 146.074219 L 190.3125 153.566406 Z M 194.503906 150.996094 L 189.558594 144.195312 L 188.996094 144.605469 L 193.941406 151.40625 Z M 197.660156 148.222656 L 191.71875 142.265625 L 191.21875 142.765625 L 197.164062 148.707031 Z M 200.359375 144.976562 L 193.558594 140.03125 L 193.148438 140.59375 L 199.949219 145.539062 Z M 202.519531 141.359375 L 195.015625 137.539062 L 194.695312 138.164062 L 202.1875 141.984375 Z M 204.078125 137.449219 L 196.078125 134.855469 L 195.859375 135.519531 L 203.859375 138.113281 Z M 204.996094 133.332031 L 196.691406 132.015625 L 196.574219 132.707031 L 204.882812 134.023438 Z M 205.277344 129.140625 L 196.871094 129.140625 L 196.871094 129.84375 L 205.277344 129.84375 Z M 204.996094 125.640625 L 204.882812 124.949219 L 196.574219 126.265625 L 196.691406 126.957031 Z M 204.078125 121.523438 L 203.859375 120.859375 L 195.859375 123.453125 L 196.078125 124.121094 Z M 202.519531 117.613281 L 202.199219 116.988281 L 194.710938 120.808594 L 195.027344 121.433594 Z M 200.359375 113.996094 L 199.949219 113.433594 L 193.152344 118.367188 L 193.558594 118.929688 Z M 197.660156 110.75 L 197.164062 110.253906 L 191.21875 116.207031 L 191.71875 116.707031 Z M 194.503906 107.976562 L 193.941406 107.570312 L 188.996094 114.367188 L 189.558594 114.777344 Z M 190.9375 105.726562 L 190.3125 105.410156 L 186.492188 112.910156 L 187.117188 113.230469 Z M 187.066406 104.066406 L 186.402344 103.847656 L 183.808594 111.851562 L 184.472656 112.066406 Z M 182.988281 103.03125 L 182.300781 102.917969 L 180.984375 111.222656 L 181.671875 111.339844 Z M 182.988281 103.03125 " fill-opacity="1" fill-rule="nonzero"/></g><g clip-path="url(#1176a1902f)"><path fill="#000000" d="M 169.074219 134.871094 L 187.804688 134.871094 L 187.804688 236.867188 L 169.074219 236.867188 Z M 169.074219 134.871094 " fill-opacity="1" fill-rule="nonzero"/></g><g clip-path="url(#e09b1c0621)"><g clip-path="url(#b17ee8110a)"><path fill="#000000" d="M 164.347656 115.394531 L 192.535156 115.394531 L 192.535156 143.582031 L 164.347656 143.582031 Z M 164.347656 115.394531 " fill-opacity="1" fill-rule="nonzero"/></g></g><g clip-path="url(#13becaf25c)"><g clip-path="url(#f3e781cfa2)"><g clip-path="url(#b4593b21a3)"><path fill="#ff8131" d="M 153.191406 116.933594 C 153.238281 116.628906 153.066406 116.339844 152.777344 116.238281 C 152.65625 116.199219 140.523438 112.097656 124.890625 111.179688 C 115.703125 110.640625 107.109375 111.292969 99.355469 113.109375 C 89.640625 115.390625 81.226562 119.523438 74.339844 125.390625 C 66.820312 131.800781 61.863281 138.839844 59.609375 146.3125 C 57.621094 152.910156 57.894531 159.496094 60.40625 165.351562 C 64.761719 175.511719 75.199219 181.550781 86.375 180.375 C 90.949219 179.894531 94.671875 178.375 97.769531 176.128906 C 106.097656 170.09375 109.886719 158.835938 113.339844 148.582031 C 115.554688 142 117.644531 135.789062 120.703125 131.382812 C 130.183594 117.726562 152.355469 117.457031 152.578125 117.457031 C 152.882812 117.453125 153.140625 117.234375 153.191406 116.933594 Z M 153.191406 116.933594 " fill-opacity="1" fill-rule="nonzero"/></g></g></g><g clip-path="url(#a784a32270)"><g clip-path="url(#d5a53fe4df)"><g clip-path="url(#13fcedf3ec)"><path fill="#ff8131" d="M 109.382812 76.222656 C 104.75 77.507812 102.289062 80.859375 102.457031 85.664062 C 102.785156 95.335938 112.789062 96.496094 124.371094 97.84375 C 134.285156 98.992188 145.527344 100.296875 153.980469 106.855469 C 154.203125 107.027344 154.507812 107.027344 154.730469 106.867188 C 154.746094 106.859375 154.761719 106.847656 154.769531 106.835938 C 154.996094 106.640625 155.054688 106.316406 154.910156 106.058594 C 141.597656 82.046875 119.914062 73.304688 109.382812 76.222656 Z M 109.382812 76.222656 " fill-opacity="1" fill-rule="nonzero"/></g></g></g><g clip-path="url(#3c8ce4aec8)"><g clip-path="url(#7815ef46fc)"><g clip-path="url(#d2ab32ad0b)"><path fill="#004aad" d="M 206.964844 124.410156 C 206.9375 124.128906 207.113281 123.871094 207.382812 123.792969 C 207.496094 123.765625 218.875 120.667969 233.292969 120.6875 C 241.769531 120.699219 249.632812 121.773438 256.660156 123.871094 C 265.460938 126.503906 272.96875 130.769531 278.972656 136.542969 C 285.53125 142.851562 289.695312 149.59375 291.355469 156.585938 C 292.820312 162.761719 292.203125 168.800781 289.574219 174.042969 C 285.003906 183.140625 275.078125 188.113281 264.871094 186.417969 C 260.695312 185.722656 257.355469 184.121094 254.632812 181.882812 C 247.3125 175.875 244.453125 165.320312 241.847656 155.703125 C 240.175781 149.53125 238.59375 143.703125 236.027344 139.488281 C 228.070312 126.410156 207.703125 124.9375 207.5 124.925781 C 207.21875 124.90625 206.992188 124.691406 206.964844 124.410156 Z M 206.964844 124.410156 " fill-opacity="1" fill-rule="nonzero"/></g></g></g><g clip-path="url(#2de89d5c26)"><g clip-path="url(#a2f9429cce)"><g clip-path="url(#5ba0dfe1a8)"><path fill="#004aad" d="M 249.484375 89.414062 C 253.671875 90.851562 255.746094 94.066406 255.328125 98.472656 C 254.488281 107.34375 245.230469 107.859375 234.507812 108.457031 C 225.332031 108.964844 214.929688 109.542969 206.796875 115.101562 C 206.582031 115.25 206.300781 115.234375 206.105469 115.074219 C 206.09375 115.0625 206.078125 115.050781 206.070312 115.042969 C 205.875 114.851562 205.835938 114.546875 205.984375 114.320312 C 219.550781 92.988281 239.960938 86.148438 249.484375 89.414062 Z M 249.484375 89.414062 " fill-opacity="1" fill-rule="nonzero"/></g></g></g><g clip-path="url(#60e95e08a9)"><g clip-path="url(#3b63ebf7a1)"><g clip-path="url(#5024cb4f8f)"><path fill="#0edb41" d="M 191.789062 29.625 C 178.011719 38.589844 174.152344 71.484375 183.113281 88.003906 C 183.113281 88.003906 187.59375 70.898438 205.699219 53.839844 C 221.25 39.191406 203.617188 21.929688 191.789062 29.625 Z M 204.601562 33.5625 C 196.359375 30.722656 191.355469 35.238281 189.308594 41.691406 C 189.308594 41.691406 188.167969 35.570312 192.753906 32.15625 C 198.398438 27.960938 204.601562 33.5625 204.601562 33.5625 Z M 204.601562 33.5625 " fill-opacity="1" fill-rule="nonzero"/></g></g></g><g clip-path="url(#469b004f39)"><g clip-path="url(#71c163f448)"><g clip-path="url(#9e119825db)"><path fill="#ffde59" d="M 191.851562 95.890625 C 191.851562 95.890625 200.917969 88.628906 217.152344 86.734375 C 231.09375 85.105469 228.566406 69.089844 219.3125 68.511719 C 208.535156 67.835938 193.601562 83.667969 191.851562 95.890625 Z M 129.515625 68.03125 C 158.648438 79.265625 171.960938 97.019531 171.960938 97.019531 C 174.542969 73.574219 154.457031 37.179688 134.199219 33.296875 C 116.808594 29.964844 104.503906 58.382812 129.515625 68.03125 Z M 129.515625 68.03125 " fill-opacity="1" fill-rule="nonzero"/></g></g></g><g clip-path="url(#f3cf3483b8)"><g clip-path="url(#c2b87b58ba)"><g clip-path="url(#4083e8de05)"><path fill="#f6f6f6" d="M 192.753906 32.15625 C 188.167969 35.570312 189.308594 41.691406 189.308594 41.691406 C 191.355469 35.238281 196.359375 30.722656 204.601562 33.5625 C 204.601562 33.5625 198.398438 27.960938 192.753906 32.15625 Z M 121.867188 44.753906 C 129.796875 37.214844 137.867188 39.757812 143.566406 46.058594 C 143.566406 46.058594 141.679688 38.472656 134.664062 36.972656 C 126.03125 35.125 121.867188 44.753906 121.867188 44.753906 Z M 213.546875 73.160156 C 217.734375 71.65625 222.089844 72.46875 223.890625 77.90625 C 223.890625 77.90625 224.34375 72.433594 219.902344 71.160156 C 216.289062 70.121094 213.546875 73.160156 213.546875 73.160156 Z M 213.546875 73.160156 " fill-opacity="1" fill-rule="nonzero"/></g></g></g><g clip-path="url(#f6eaf1ce2d)"><g clip-path="url(#ee1a0fc504)"><g clip-path="url(#1a45cc1872)"><path fill="#fd0000" d="M 147.917969 128.019531 C 138.929688 136.089844 130.726562 148.011719 123.3125 163.789062 C 118.359375 173.539062 116.335938 183.828125 117.246094 194.65625 C 119.75 210.492188 125.042969 220.203125 133.117188 223.78125 C 142.980469 226.183594 150.671875 221.472656 156.199219 209.644531 C 157.972656 204.6875 158.101562 199.09375 156.589844 192.867188 C 156.191406 190.382812 152.785156 182.085938 146.375 167.976562 C 144.910156 163.882812 144.058594 160.769531 143.824219 158.648438 C 142.695312 149.074219 143.222656 141.195312 145.40625 135.011719 Z M 147.917969 128.019531 " fill-opacity="0.996" fill-rule="nonzero"/></g></g></g><g clip-path="url(#7b56ceafdb)"><g clip-path="url(#b47aad004a)"><g clip-path="url(#5afef6f1ad)"><path fill="#ffffff" d="M 122.226562 178.453125 C 121.191406 187.09375 120.769531 192.296875 120.960938 194.066406 C 121.003906 197.414062 121.609375 200.875 122.769531 204.457031 C 123.59375 207.15625 124.878906 209.78125 126.621094 212.339844 C 127.894531 214.28125 129.3125 215.761719 130.867188 216.773438 C 134.472656 218.929688 136.84375 218.074219 137.980469 214.207031 C 138.222656 212.648438 137.835938 210.878906 136.820312 208.894531 C 136.460938 208.144531 135.945312 207.25 135.277344 206.207031 C 131.121094 200.113281 128.921875 196.746094 128.679688 196.109375 C 127.382812 193.785156 126.246094 191.070312 125.261719 187.960938 Z M 122.226562 178.453125 " fill-opacity="0.996" fill-rule="nonzero"/></g></g></g><g clip-path="url(#14e3c4f6fb)"><g clip-path="url(#dea0a37881)"><g clip-path="url(#cbdc41e1dd)"><path fill="#8c52ff" d="M 206.285156 137.519531 C 213.316406 144.109375 219.652344 153.757812 225.296875 166.464844 C 229.078125 174.328125 230.515625 182.566406 229.609375 191.1875 C 227.339844 203.773438 222.953125 211.425781 216.453125 214.144531 C 208.542969 215.890625 202.488281 212 198.285156 202.472656 C 196.953125 198.488281 196.945312 194.027344 198.261719 189.085938 C 198.621094 187.109375 201.476562 180.550781 206.832031 169.410156 C 208.070312 166.171875 208.800781 163.703125 209.023438 162.015625 C 210.089844 154.398438 209.804688 148.105469 208.167969 143.136719 Z M 206.285156 137.519531 " fill-opacity="0.996" fill-rule="nonzero"/></g></g></g><g clip-path="url(#67d2def018)"><g clip-path="url(#d77eebb006)"><g clip-path="url(#f2eef4bdc3)"><path fill="#ffffff" d="M 225.914062 178.179688 C 226.589844 185.089844 226.835938 189.246094 226.652344 190.652344 C 226.5625 193.320312 226.019531 196.074219 225.03125 198.90625 C 224.328125 201.046875 223.261719 203.121094 221.828125 205.128906 C 220.777344 206.65625 219.625 207.8125 218.363281 208.59375 C 215.453125 210.25 213.574219 209.527344 212.734375 206.421875 C 212.570312 205.175781 212.910156 203.769531 213.75 202.207031 C 214.050781 201.613281 214.476562 200.910156 215.027344 200.089844 C 218.449219 195.300781 220.261719 192.652344 220.464844 192.148438 C 221.535156 190.320312 222.492188 188.171875 223.328125 185.710938 Z M 225.914062 178.179688 " fill-opacity="0.996" fill-rule="nonzero"/></g></g></g><g fill="#000000" fill-opacity="1"><g transform="translate(302.856156, 202.134992)"><g><path d="M 43.507812 -11.066406 L 43.507812 -113.921875 C 43.507812 -116.941406 44.511719 -119.582031 46.523438 -121.84375 C 46.902344 -122.472656 46.902344 -123.101562 46.652344 -123.855469 C 46.273438 -124.613281 45.644531 -124.988281 44.890625 -124.988281 L 17.101562 -124.988281 C 16.222656 -124.988281 15.59375 -124.613281 15.339844 -123.855469 C 14.964844 -123.101562 14.964844 -122.472656 15.464844 -121.84375 C 17.476562 -119.582031 18.609375 -116.941406 18.609375 -113.921875 L 18.609375 -11.066406 C 18.609375 -8.046875 17.476562 -5.40625 15.464844 -3.144531 C 14.964844 -2.390625 14.964844 -1.761719 15.339844 -1.007812 C 15.59375 -0.25 16.222656 0 17.101562 0 L 44.890625 0 C 45.644531 0 46.273438 -0.25 46.652344 -1.007812 C 46.902344 -1.761719 46.902344 -2.390625 46.523438 -3.144531 C 45.519531 -4.148438 44.765625 -5.40625 44.261719 -6.789062 C 43.757812 -8.171875 43.507812 -9.554688 43.507812 -11.066406 Z M 43.507812 -11.066406 "/></g></g></g><g fill="#000000" fill-opacity="1"><g transform="translate(364.971151, 202.134992)"><g><path d="M 109.269531 -3.144531 L 109.019531 -3.269531 C 107.007812 -5.40625 106.128906 -7.921875 106.128906 -10.941406 L 106.128906 -114.050781 C 106.128906 -116.941406 107.007812 -119.457031 109.019531 -121.71875 L 109.269531 -121.84375 C 109.648438 -122.472656 109.648438 -123.101562 109.269531 -123.855469 C 108.894531 -124.613281 108.390625 -124.988281 107.636719 -124.988281 L 79.722656 -124.988281 C 78.964844 -124.988281 78.339844 -124.613281 77.960938 -123.855469 C 77.582031 -123.101562 77.582031 -122.472656 78.085938 -121.84375 L 78.210938 -121.84375 C 80.222656 -119.582031 81.230469 -116.941406 81.230469 -114.175781 L 81.230469 -79.09375 C 81.230469 -77.835938 80.726562 -76.828125 79.972656 -76.074219 C 79.09375 -75.320312 78.085938 -74.941406 76.953125 -74.941406 L 47.78125 -74.941406 C 46.523438 -74.941406 45.519531 -75.320312 44.765625 -76.074219 C 43.882812 -76.828125 43.507812 -77.835938 43.507812 -79.09375 L 43.507812 -114.300781 C 43.507812 -117.066406 44.511719 -119.582031 46.523438 -121.84375 C 46.902344 -122.472656 46.902344 -123.101562 46.652344 -123.855469 C 46.273438 -124.613281 45.644531 -124.988281 44.890625 -124.988281 L 17.101562 -124.988281 C 16.222656 -124.988281 15.59375 -124.613281 15.339844 -123.855469 C 14.964844 -123.101562 14.964844 -122.472656 15.464844 -121.84375 L 15.71875 -121.59375 C 17.605469 -119.457031 18.609375 -116.941406 18.609375 -114.050781 L 18.609375 -11.066406 C 18.609375 -8.046875 17.605469 -5.40625 15.71875 -3.394531 L 15.464844 -3.144531 C 14.964844 -2.390625 14.964844 -1.761719 15.339844 -1.007812 C 15.59375 -0.25 16.222656 0 17.101562 0 L 44.890625 0 C 45.644531 0 46.273438 -0.25 46.652344 -1.007812 C 46.902344 -1.761719 46.902344 -2.390625 46.523438 -3.144531 C 44.511719 -5.40625 43.507812 -7.921875 43.507812 -10.8125 L 43.507812 -45.894531 C 43.507812 -47.027344 43.882812 -48.035156 44.765625 -48.789062 C 45.519531 -49.542969 46.523438 -50.046875 47.78125 -50.046875 L 76.953125 -50.046875 C 78.085938 -50.046875 79.09375 -49.542969 79.972656 -48.789062 C 80.726562 -48.035156 81.230469 -47.027344 81.230469 -45.894531 L 81.230469 -10.8125 C 81.230469 -7.921875 80.222656 -5.40625 78.210938 -3.269531 L 78.085938 -3.144531 C 77.582031 -2.390625 77.582031 -1.761719 77.960938 -1.007812 C 78.339844 -0.25 78.964844 0 79.722656 0 L 107.636719 0 C 108.390625 0 108.894531 -0.25 109.269531 -1.007812 C 109.648438 -1.761719 109.648438 -2.390625 109.269531 -3.144531 Z M 109.269531 -3.144531 "/></g></g></g><g fill="#000000" fill-opacity="1"><g transform="translate(489.704094, 202.134992)"><g><path d="M 107.761719 -124.863281 L 79.972656 -124.863281 C 79.09375 -124.863281 78.464844 -124.484375 78.210938 -123.855469 C 77.835938 -123.101562 77.835938 -122.472656 78.339844 -121.84375 C 80.351562 -119.457031 81.480469 -116.816406 81.480469 -113.921875 L 81.480469 -40.613281 C 81.480469 -36.71875 80.476562 -33.699219 78.714844 -31.6875 C 76.953125 -29.550781 74.941406 -28.039062 72.679688 -27.035156 C 70.417969 -26.027344 68.277344 -25.398438 66.265625 -25.148438 C 64.253906 -24.898438 62.996094 -24.898438 62.496094 -24.898438 C 61.992188 -24.898438 60.609375 -24.898438 58.597656 -25.148438 C 56.585938 -25.398438 54.445312 -26.027344 52.183594 -27.035156 C 49.921875 -28.039062 47.90625 -29.550781 46.148438 -31.6875 C 44.386719 -33.699219 43.507812 -36.71875 43.507812 -40.613281 L 43.507812 -113.921875 C 43.507812 -116.941406 44.511719 -119.582031 46.523438 -121.84375 C 46.902344 -122.472656 46.902344 -123.101562 46.652344 -123.855469 C 46.273438 -124.484375 45.644531 -124.863281 44.890625 -124.863281 L 17.101562 -124.863281 C 16.222656 -124.863281 15.59375 -124.484375 15.339844 -123.855469 C 14.964844 -123.101562 14.964844 -122.472656 15.464844 -121.84375 C 17.476562 -119.582031 18.484375 -116.941406 18.484375 -113.921875 L 18.484375 -40.613281 C 18.484375 -34.328125 19.742188 -28.542969 22.257812 -23.261719 C 24.769531 -17.980469 28.292969 -13.453125 33.070312 -9.683594 C 37.09375 -6.414062 41.621094 -4.023438 46.652344 -2.390625 C 51.679688 -0.628906 56.960938 0.125 62.496094 0.125 C 68.027344 0.125 73.183594 -0.628906 78.210938 -2.390625 C 83.242188 -4.023438 87.769531 -6.414062 91.792969 -9.683594 C 96.570312 -13.453125 100.089844 -17.980469 102.605469 -23.261719 C 105.121094 -28.542969 106.378906 -34.328125 106.378906 -40.613281 L 106.378906 -113.921875 C 106.378906 -116.691406 107.382812 -119.332031 109.394531 -121.84375 C 109.898438 -122.472656 109.898438 -123.101562 109.523438 -123.855469 C 109.144531 -124.484375 108.515625 -124.863281 107.761719 -124.863281 Z M 107.761719 -124.863281 "/></g></g></g><g fill="#000000" fill-opacity="1"><g transform="translate(614.688525, 202.134992)"><g><path d="M 91.539062 -125.867188 C 89.402344 -123.855469 86.886719 -122.976562 84.121094 -122.976562 L 17.101562 -122.976562 C 16.222656 -122.976562 15.59375 -122.597656 15.339844 -121.84375 C 14.964844 -121.089844 14.964844 -120.460938 15.464844 -119.832031 L 15.84375 -119.457031 C 17.855469 -117.191406 18.863281 -114.550781 18.863281 -111.535156 L 18.863281 -9.429688 C 18.863281 -7.921875 18.609375 -6.539062 18.105469 -5.15625 C 17.605469 -3.773438 16.847656 -2.515625 15.84375 -1.507812 L 15.464844 -1.132812 C 14.964844 -0.378906 14.964844 0.25 15.339844 1.007812 C 15.59375 1.761719 16.222656 2.011719 17.101562 2.011719 L 84.121094 2.011719 C 86.886719 2.011719 89.402344 3.019531 91.539062 4.902344 C 92.167969 5.53125 92.925781 5.660156 93.679688 5.28125 C 94.433594 5.03125 94.9375 4.402344 94.9375 3.394531 L 94.9375 -24.644531 C 94.9375 -25.398438 94.558594 -26.027344 93.804688 -26.40625 C 93.050781 -26.65625 92.296875 -26.53125 91.792969 -26.027344 C 89.527344 -23.890625 86.886719 -22.886719 83.871094 -22.886719 L 46.902344 -22.886719 C 46.023438 -22.886719 45.265625 -23.136719 44.640625 -23.765625 C 44.011719 -24.269531 43.757812 -25.023438 43.757812 -26.027344 L 43.757812 -44.890625 C 43.757812 -45.769531 44.011719 -46.523438 44.640625 -47.152344 C 45.265625 -47.65625 46.023438 -48.035156 46.902344 -48.035156 L 57.96875 -48.035156 C 60.984375 -48.035156 63.625 -46.902344 65.890625 -44.890625 C 66.519531 -44.386719 67.148438 -44.386719 67.902344 -44.765625 C 68.65625 -45.140625 69.03125 -45.769531 69.03125 -46.523438 L 69.03125 -74.441406 C 69.03125 -75.195312 68.65625 -75.699219 67.902344 -76.074219 C 67.148438 -76.453125 66.519531 -76.453125 65.890625 -76.074219 C 63.625 -73.9375 60.984375 -72.929688 57.96875 -72.929688 L 46.902344 -72.929688 C 46.023438 -72.929688 45.265625 -73.183594 44.640625 -73.8125 C 44.011719 -74.3125 43.757812 -75.070312 43.757812 -76.074219 L 43.757812 -94.9375 C 43.757812 -95.816406 44.011719 -96.570312 44.640625 -97.199219 C 45.265625 -97.703125 46.023438 -98.078125 46.902344 -98.078125 L 83.871094 -98.078125 C 86.886719 -98.078125 89.527344 -96.949219 91.792969 -94.9375 C 92.296875 -94.308594 93.050781 -94.179688 93.804688 -94.558594 C 94.558594 -94.808594 94.9375 -95.4375 94.9375 -96.320312 L 94.9375 -124.484375 C 94.9375 -125.238281 94.433594 -125.867188 93.679688 -126.246094 C 92.925781 -126.496094 92.167969 -126.371094 91.539062 -125.867188 Z M 91.539062 -125.867188 "/></g></g></g></svg>