<svg xmlns="http://www.w3.org/2000/svg" xmlns:xlink="http://www.w3.org/1999/xlink" width="1366" zoomAndPan="magnify" viewBox="0 0 1024.5 576" height="768" preserveAspectRatio="xMidYMid meet" version="1.0"><defs><clipPath id="4dc21a69db"><path d="M 825.828125 86.476562 L 838.574219 86.476562 L 838.574219 99.222656 L 825.828125 99.222656 Z M 825.828125 86.476562 " clip-rule="nonzero"/></clipPath><clipPath id="d274b9c7e2"><path d="M 199.203125 425.140625 L 211.945312 425.140625 L 211.945312 437.882812 L 199.203125 437.882812 Z M 199.203125 425.140625 " clip-rule="nonzero"/></clipPath><clipPath id="7d13e0e600"><path d="M 44.671875 221.941406 L 57.414062 221.941406 L 57.414062 234.6875 L 44.671875 234.6875 Z M 44.671875 221.941406 " clip-rule="nonzero"/></clipPath><clipPath id="ae822605c8"><path d="M 133.082031 99.378906 L 145.828125 99.378906 L 145.828125 112.121094 L 133.082031 112.121094 Z M 133.082031 99.378906 " clip-rule="nonzero"/></clipPath><clipPath id="3a73441c12"><path d="M 801.4375 387.296875 L 814.179688 387.296875 L 814.179688 400.042969 L 801.4375 400.042969 Z M 801.4375 387.296875 " clip-rule="nonzero"/></clipPath><clipPath id="21c7eb7a75"><path d="M 912.265625 6.414062 L 966.238281 6.414062 L 966.238281 60.390625 L 912.265625 60.390625 Z M 912.265625 6.414062 " clip-rule="nonzero"/></clipPath><clipPath id="6139a4306f"><path d="M 271 226.273438 L 303.726562 226.273438 L 303.726562 268.773438 L 271 268.773438 Z M 271 226.273438 " clip-rule="nonzero"/></clipPath><clipPath id="65562b2c91"><path d="M 266.476562 222 L 299 222 L 299 264 L 266.476562 264 Z M 266.476562 222 " clip-rule="nonzero"/></clipPath><clipPath id="3b6fd49e1e"><path d="M 898.835938 411.335938 L 939.316406 411.335938 L 939.316406 451.816406 L 898.835938 451.816406 Z M 898.835938 411.335938 " clip-rule="nonzero"/></clipPath><clipPath id="3b333dfec4"><path d="M 23.964844 44 L 72 44 L 72 92.699219 L 23.964844 92.699219 Z M 23.964844 44 " clip-rule="nonzero"/></clipPath><clipPath id="c0ff4e7250"><path d="M 58 28.230469 L 91.433594 28.230469 L 91.433594 68 L 58 68 Z M 58 28.230469 " clip-rule="nonzero"/></clipPath></defs><g clip-path="url(#4dc21a69db)"><path fill="#ef4136" d="M 838.574219 92.847656 C 838.574219 93.265625 838.53125 93.679688 838.449219 94.089844 C 838.367188 94.5 838.246094 94.898438 838.085938 95.285156 C 837.925781 95.671875 837.730469 96.039062 837.5 96.386719 C 837.265625 96.734375 837.003906 97.054688 836.707031 97.351562 C 836.410156 97.648438 836.089844 97.914062 835.742188 98.144531 C 835.394531 98.378906 835.027344 98.574219 834.640625 98.734375 C 834.253906 98.894531 833.855469 99.015625 833.445312 99.097656 C 833.035156 99.179688 832.617188 99.21875 832.199219 99.21875 C 831.78125 99.21875 831.367188 99.179688 830.957031 99.097656 C 830.546875 99.015625 830.148438 98.894531 829.761719 98.734375 C 829.375 98.574219 829.007812 98.378906 828.660156 98.144531 C 828.3125 97.914062 827.992188 97.648438 827.695312 97.351562 C 827.398438 97.054688 827.136719 96.734375 826.902344 96.386719 C 826.671875 96.039062 826.472656 95.671875 826.3125 95.285156 C 826.152344 94.898438 826.03125 94.5 825.949219 94.089844 C 825.871094 93.679688 825.828125 93.265625 825.828125 92.847656 C 825.828125 92.429688 825.871094 92.015625 825.949219 91.605469 C 826.03125 91.195312 826.152344 90.796875 826.3125 90.410156 C 826.472656 90.023438 826.671875 89.65625 826.902344 89.308594 C 827.136719 88.957031 827.398438 88.636719 827.695312 88.339844 C 827.992188 88.046875 828.3125 87.78125 828.660156 87.546875 C 829.007812 87.316406 829.375 87.121094 829.761719 86.960938 C 830.148438 86.800781 830.546875 86.679688 830.957031 86.597656 C 831.367188 86.515625 831.78125 86.476562 832.199219 86.476562 C 832.617188 86.476562 833.035156 86.515625 833.445312 86.597656 C 833.855469 86.679688 834.253906 86.800781 834.640625 86.960938 C 835.027344 87.121094 835.394531 87.316406 835.742188 87.546875 C 836.089844 87.78125 836.410156 88.046875 836.707031 88.339844 C 837.003906 88.636719 837.265625 88.957031 837.5 89.308594 C 837.730469 89.65625 837.925781 90.023438 838.085938 90.410156 C 838.246094 90.796875 838.367188 91.195312 838.449219 91.605469 C 838.53125 92.015625 838.574219 92.429688 838.574219 92.847656 Z M 838.574219 92.847656 " fill-opacity="1" fill-rule="nonzero"/></g><g clip-path="url(#d274b9c7e2)"><path fill="#ffbd59" d="M 212.097656 431.585938 C 212.097656 432.007812 212.058594 432.429688 211.972656 432.84375 C 211.890625 433.257812 211.769531 433.660156 211.609375 434.054688 C 211.445312 434.445312 211.246094 434.816406 211.011719 435.167969 C 210.777344 435.519531 210.507812 435.84375 210.210938 436.144531 C 209.910156 436.445312 209.585938 436.710938 209.234375 436.945312 C 208.878906 437.183594 208.507812 437.378906 208.117188 437.542969 C 207.726562 437.703125 207.324219 437.828125 206.910156 437.910156 C 206.492188 437.992188 206.074219 438.035156 205.648438 438.035156 C 205.226562 438.035156 204.808594 437.992188 204.390625 437.910156 C 203.976562 437.828125 203.574219 437.703125 203.183594 437.542969 C 202.792969 437.378906 202.421875 437.183594 202.066406 436.945312 C 201.714844 436.710938 201.390625 436.445312 201.089844 436.144531 C 200.792969 435.84375 200.523438 435.519531 200.289062 435.167969 C 200.054688 434.816406 199.855469 434.445312 199.691406 434.054688 C 199.53125 433.660156 199.410156 433.257812 199.328125 432.84375 C 199.242188 432.429688 199.203125 432.007812 199.203125 431.585938 C 199.203125 431.160156 199.242188 430.742188 199.328125 430.328125 C 199.410156 429.910156 199.53125 429.507812 199.691406 429.117188 C 199.855469 428.726562 200.054688 428.355469 200.289062 428.003906 C 200.523438 427.652344 200.792969 427.324219 201.089844 427.027344 C 201.390625 426.726562 201.714844 426.460938 202.066406 426.222656 C 202.421875 425.988281 202.792969 425.789062 203.183594 425.628906 C 203.574219 425.464844 203.976562 425.34375 204.390625 425.261719 C 204.808594 425.179688 205.226562 425.136719 205.648438 425.136719 C 206.074219 425.136719 206.492188 425.179688 206.910156 425.261719 C 207.324219 425.34375 207.726562 425.464844 208.117188 425.628906 C 208.507812 425.789062 208.878906 425.988281 209.234375 426.222656 C 209.585938 426.460938 209.910156 426.726562 210.210938 427.027344 C 210.507812 427.324219 210.777344 427.652344 211.011719 428.003906 C 211.246094 428.355469 211.445312 428.726562 211.609375 429.117188 C 211.769531 429.507812 211.890625 429.910156 211.972656 430.328125 C 212.058594 430.742188 212.097656 431.160156 212.097656 431.585938 Z M 212.097656 431.585938 " fill-opacity="1" fill-rule="nonzero"/></g><g clip-path="url(#7d13e0e600)"><path fill="#8c52ff" d="M 57.566406 228.386719 C 57.566406 228.8125 57.523438 229.230469 57.441406 229.644531 C 57.359375 230.0625 57.238281 230.464844 57.074219 230.855469 C 56.914062 231.246094 56.714844 231.617188 56.480469 231.96875 C 56.246094 232.320312 55.976562 232.648438 55.679688 232.945312 C 55.378906 233.246094 55.054688 233.515625 54.699219 233.75 C 54.347656 233.984375 53.976562 234.183594 53.585938 234.34375 C 53.195312 234.507812 52.792969 234.628906 52.375 234.710938 C 51.960938 234.792969 51.542969 234.835938 51.117188 234.835938 C 50.695312 234.835938 50.277344 234.792969 49.859375 234.710938 C 49.445312 234.628906 49.042969 234.507812 48.652344 234.34375 C 48.261719 234.183594 47.886719 233.984375 47.535156 233.75 C 47.183594 233.515625 46.859375 233.246094 46.558594 232.945312 C 46.261719 232.648438 45.992188 232.320312 45.757812 231.96875 C 45.523438 231.617188 45.324219 231.246094 45.160156 230.855469 C 45 230.464844 44.878906 230.0625 44.792969 229.644531 C 44.710938 229.230469 44.671875 228.8125 44.671875 228.386719 C 44.671875 227.964844 44.710938 227.546875 44.792969 227.128906 C 44.878906 226.714844 45 226.3125 45.160156 225.921875 C 45.324219 225.527344 45.523438 225.15625 45.757812 224.804688 C 45.992188 224.453125 46.261719 224.128906 46.558594 223.828125 C 46.859375 223.527344 47.183594 223.261719 47.535156 223.027344 C 47.886719 222.792969 48.261719 222.59375 48.652344 222.429688 C 49.042969 222.269531 49.445312 222.144531 49.859375 222.0625 C 50.277344 221.980469 50.695312 221.941406 51.117188 221.941406 C 51.542969 221.941406 51.960938 221.980469 52.375 222.0625 C 52.792969 222.144531 53.195312 222.269531 53.585938 222.429688 C 53.976562 222.59375 54.347656 222.792969 54.699219 223.027344 C 55.054688 223.261719 55.378906 223.527344 55.679688 223.828125 C 55.976562 224.128906 56.246094 224.453125 56.480469 224.804688 C 56.714844 225.15625 56.914062 225.527344 57.074219 225.921875 C 57.238281 226.3125 57.359375 226.714844 57.441406 227.128906 C 57.523438 227.546875 57.566406 227.964844 57.566406 228.386719 Z M 57.566406 228.386719 " fill-opacity="1" fill-rule="nonzero"/></g><g clip-path="url(#ae822605c8)"><path fill="#ff66c4" d="M 145.980469 105.824219 C 145.980469 106.246094 145.9375 106.667969 145.855469 107.082031 C 145.773438 107.496094 145.648438 107.902344 145.488281 108.292969 C 145.324219 108.683594 145.128906 109.054688 144.890625 109.40625 C 144.65625 109.757812 144.390625 110.085938 144.089844 110.382812 C 143.789062 110.683594 143.464844 110.949219 143.113281 111.1875 C 142.761719 111.421875 142.390625 111.621094 142 111.78125 C 141.605469 111.945312 141.203125 112.066406 140.789062 112.148438 C 140.375 112.230469 139.953125 112.273438 139.53125 112.273438 C 139.105469 112.273438 138.6875 112.230469 138.273438 112.148438 C 137.855469 112.066406 137.453125 111.945312 137.0625 111.78125 C 136.671875 111.621094 136.300781 111.421875 135.949219 111.183594 C 135.597656 110.949219 135.269531 110.683594 134.972656 110.382812 C 134.671875 110.085938 134.40625 109.757812 134.167969 109.40625 C 133.933594 109.054688 133.734375 108.683594 133.574219 108.292969 C 133.410156 107.902344 133.289062 107.496094 133.207031 107.082031 C 133.125 106.667969 133.082031 106.246094 133.082031 105.824219 C 133.082031 105.402344 133.125 104.980469 133.207031 104.566406 C 133.289062 104.152344 133.410156 103.746094 133.574219 103.355469 C 133.734375 102.964844 133.933594 102.59375 134.167969 102.242188 C 134.40625 101.890625 134.671875 101.5625 134.972656 101.265625 C 135.269531 100.964844 135.597656 100.699219 135.949219 100.460938 C 136.300781 100.226562 136.671875 100.027344 137.0625 99.867188 C 137.453125 99.703125 137.855469 99.582031 138.273438 99.5 C 138.6875 99.417969 139.105469 99.375 139.53125 99.375 C 139.953125 99.375 140.375 99.417969 140.789062 99.5 C 141.203125 99.582031 141.605469 99.703125 142 99.867188 C 142.390625 100.027344 142.761719 100.226562 143.113281 100.460938 C 143.464844 100.699219 143.789062 100.964844 144.089844 101.265625 C 144.390625 101.5625 144.65625 101.890625 144.890625 102.242188 C 145.128906 102.59375 145.324219 102.964844 145.488281 103.355469 C 145.648438 103.746094 145.773438 104.152344 145.855469 104.566406 C 145.9375 104.980469 145.980469 105.402344 145.980469 105.824219 Z M 145.980469 105.824219 " fill-opacity="1" fill-rule="nonzero"/></g><g clip-path="url(#3a73441c12)"><path fill="#004aad" d="M 814.332031 393.742188 C 814.332031 394.167969 814.292969 394.585938 814.207031 395 C 814.125 395.417969 814.003906 395.820312 813.84375 396.210938 C 813.679688 396.601562 813.480469 396.972656 813.246094 397.328125 C 813.011719 397.679688 812.742188 398.003906 812.445312 398.304688 C 812.144531 398.601562 811.820312 398.871094 811.46875 399.105469 C 811.113281 399.339844 810.742188 399.539062 810.351562 399.699219 C 809.960938 399.863281 809.558594 399.984375 809.144531 400.066406 C 808.726562 400.152344 808.308594 400.191406 807.882812 400.191406 C 807.460938 400.191406 807.042969 400.152344 806.625 400.066406 C 806.210938 399.984375 805.808594 399.863281 805.417969 399.699219 C 805.027344 399.539062 804.65625 399.339844 804.300781 399.105469 C 803.949219 398.871094 803.625 398.601562 803.324219 398.304688 C 803.027344 398.003906 802.757812 397.679688 802.523438 397.328125 C 802.289062 396.972656 802.089844 396.601562 801.925781 396.210938 C 801.765625 395.820312 801.644531 395.417969 801.5625 395 C 801.476562 394.585938 801.4375 394.167969 801.4375 393.742188 C 801.4375 393.320312 801.476562 392.902344 801.5625 392.484375 C 801.644531 392.070312 801.765625 391.667969 801.925781 391.277344 C 802.089844 390.886719 802.289062 390.511719 802.523438 390.160156 C 802.757812 389.808594 803.027344 389.484375 803.324219 389.183594 C 803.625 388.886719 803.949219 388.617188 804.300781 388.382812 C 804.65625 388.148438 805.027344 387.949219 805.417969 387.785156 C 805.808594 387.625 806.210938 387.503906 806.625 387.417969 C 807.042969 387.335938 807.460938 387.296875 807.882812 387.296875 C 808.308594 387.296875 808.726562 387.335938 809.144531 387.417969 C 809.558594 387.503906 809.960938 387.625 810.351562 387.785156 C 810.742188 387.949219 811.113281 388.148438 811.46875 388.382812 C 811.820312 388.617188 812.144531 388.886719 812.445312 389.183594 C 812.742188 389.484375 813.011719 389.808594 813.246094 390.160156 C 813.480469 390.511719 813.679688 390.886719 813.84375 391.277344 C 814.003906 391.667969 814.125 392.070312 814.207031 392.484375 C 814.292969 392.902344 814.332031 393.320312 814.332031 393.742188 Z M 814.332031 393.742188 " fill-opacity="1" fill-rule="nonzero"/></g><g clip-path="url(#21c7eb7a75)"><path fill="#a6a6a6" d="M 946.066406 45.441406 L 946.0625 45.441406 C 935.742188 45.441406 927.386719 37.097656 927.386719 26.773438 C 927.386719 16.480469 935.765625 8.101562 946.066406 8.101562 C 956.378906 8.101562 964.734375 16.449219 964.734375 26.773438 C 964.734375 37.0625 956.355469 45.441406 946.066406 45.441406 Z M 931.769531 44.609375 L 928.222656 41.058594 L 929.996094 39.285156 C 931.070312 40.652344 932.175781 41.761719 933.546875 42.828125 Z M 929.574219 49.902344 L 922.929688 43.257812 L 925.476562 40.707031 C 925.578125 40.808594 932.421875 47.652344 932.121094 47.355469 Z M 921.980469 57.496094 C 920.144531 59.332031 917.171875 59.332031 915.332031 57.496094 C 913.496094 55.65625 913.496094 52.6875 915.332031 50.847656 L 922.328125 43.851562 L 928.972656 50.5 Z M 946.066406 6.410156 C 934.835938 6.410156 925.695312 15.546875 925.695312 26.769531 C 925.695312 30.785156 926.847656 34.613281 928.996094 37.890625 L 927.027344 39.863281 L 926.074219 38.910156 C 925.746094 38.578125 925.207031 38.578125 924.875 38.910156 L 914.140625 49.652344 C 911.640625 52.148438 911.640625 56.191406 914.140625 58.691406 C 916.636719 61.1875 920.679688 61.1875 923.175781 58.691406 L 933.914062 47.949219 C 934.074219 47.792969 934.164062 47.578125 934.164062 47.355469 C 934.164062 47.128906 934.074219 46.910156 933.914062 46.753906 L 932.96875 45.804688 L 934.941406 43.835938 C 938.21875 45.980469 942.050781 47.132812 946.066406 47.132812 C 957.292969 47.132812 966.425781 37.996094 966.425781 26.773438 C 966.425781 15.523438 957.316406 6.410156 946.066406 6.410156 " fill-opacity="1" fill-rule="nonzero"/></g><path fill="#a6a6a6" d="M 956.226562 38.097656 C 955.398438 35.425781 953.5625 33.199219 951.078125 31.875 C 951.492188 30.511719 952.414062 29.359375 953.671875 28.671875 C 955.226562 29.664062 957.355469 29.671875 958.929688 28.667969 C 959.699219 29.085938 960.351562 29.699219 960.84375 30.4375 C 960.097656 33.441406 958.460938 36.089844 956.226562 38.097656 Z M 936.589844 38.703125 C 937.300781 36.0625 939.070312 33.847656 941.503906 32.566406 C 944.195312 34.375 947.890625 34.382812 950.605469 32.566406 C 953.042969 33.835938 954.8125 36.054688 955.523438 38.699219 C 952.921875 40.765625 949.628906 42.015625 946.050781 42.015625 C 942.574219 42.015625 939.277344 40.84375 936.589844 38.703125 Z M 931.269531 30.441406 C 931.761719 29.707031 932.40625 29.097656 933.179688 28.667969 C 934.753906 29.671875 936.878906 29.664062 938.441406 28.667969 C 939.679688 29.347656 940.625 30.515625 941.042969 31.871094 C 938.554688 33.203125 936.71875 35.429688 935.890625 38.097656 C 933.46875 35.917969 931.984375 33.308594 931.269531 30.441406 Z M 946.058594 11.527344 C 954.460938 11.527344 961.308594 18.371094 961.308594 26.773438 C 961.308594 27.648438 961.21875 28.503906 961.074219 29.34375 C 960.519531 28.699219 959.847656 28.167969 959.082031 27.796875 C 958.941406 27.730469 958.78125 27.746094 958.65625 27.835938 C 957.269531 28.824219 955.304688 28.8125 953.953125 27.835938 C 953.824219 27.746094 953.660156 27.730469 953.519531 27.804688 C 951.882812 28.605469 950.691406 30.058594 950.214844 31.800781 C 947.746094 33.496094 944.355469 33.496094 941.902344 31.808594 C 941.425781 30.046875 940.234375 28.597656 938.597656 27.804688 C 938.460938 27.730469 938.292969 27.746094 938.167969 27.835938 C 936.796875 28.8125 934.835938 28.824219 933.453125 27.835938 C 933.328125 27.746094 933.160156 27.730469 933.023438 27.804688 C 932.257812 28.179688 931.589844 28.707031 931.039062 29.347656 C 930.894531 28.5 930.808594 27.644531 930.808594 26.773438 C 930.808594 18.363281 937.648438 11.527344 946.058594 11.527344 Z M 962.15625 26.773438 C 962.15625 17.902344 954.929688 10.679688 946.058594 10.679688 C 937.179688 10.679688 929.964844 17.898438 929.964844 26.773438 C 929.964844 35.460938 937.011719 42.863281 946.050781 42.863281 C 955.066406 42.863281 962.15625 35.476562 962.15625 26.773438 " fill-opacity="1" fill-rule="nonzero"/><path fill="#a6a6a6" d="M 935.804688 22.683594 C 936.960938 22.683594 937.898438 23.613281 937.898438 24.765625 C 937.898438 25.914062 936.960938 26.847656 935.804688 26.847656 C 934.667969 26.847656 933.734375 25.914062 933.734375 24.765625 C 933.734375 23.613281 934.667969 22.683594 935.804688 22.683594 Z M 935.804688 27.691406 C 937.425781 27.691406 938.742188 26.378906 938.742188 24.765625 C 938.742188 23.148438 937.425781 21.835938 935.804688 21.835938 C 934.199219 21.835938 932.886719 23.148438 932.886719 24.765625 C 932.886719 26.378906 934.199219 27.691406 935.804688 27.691406 " fill-opacity="1" fill-rule="nonzero"/><path fill="#a6a6a6" d="M 946.058594 22.214844 C 948.226562 22.214844 949.988281 23.980469 949.988281 26.152344 C 949.988281 28.3125 948.226562 30.066406 946.058594 30.066406 C 943.886719 30.066406 942.128906 28.3125 942.128906 26.152344 C 942.128906 23.980469 943.894531 22.214844 946.058594 22.214844 Z M 946.058594 30.914062 C 948.691406 30.914062 950.835938 28.777344 950.835938 26.152344 C 950.835938 23.515625 948.691406 21.371094 946.058594 21.371094 C 943.421875 21.371094 941.28125 23.515625 941.28125 26.152344 C 941.28125 28.777344 943.421875 30.914062 946.058594 30.914062 " fill-opacity="1" fill-rule="nonzero"/><path fill="#a6a6a6" d="M 956.304688 22.683594 C 957.453125 22.683594 958.386719 23.613281 958.386719 24.765625 C 958.386719 25.914062 957.453125 26.847656 956.304688 26.847656 C 955.15625 26.847656 954.222656 25.914062 954.222656 24.765625 C 954.222656 23.613281 955.15625 22.683594 956.304688 22.683594 Z M 956.304688 27.691406 C 957.917969 27.691406 959.230469 26.378906 959.230469 24.765625 C 959.230469 23.148438 957.917969 21.835938 956.304688 21.835938 C 954.6875 21.835938 953.375 23.148438 953.375 24.765625 C 953.375 26.378906 954.6875 27.691406 956.304688 27.691406 " fill-opacity="1" fill-rule="nonzero"/><g clip-path="url(#6139a4306f)"><path fill="#d9d9d9" d="M 298.816406 232.175781 L 276.28125 232.175781 C 276.09375 232.175781 275.933594 232.019531 275.933594 231.824219 C 275.933594 231.628906 276.09375 231.476562 276.28125 231.476562 L 298.816406 231.476562 C 299.011719 231.476562 299.164062 231.628906 299.164062 231.824219 C 299.164062 232.019531 299.011719 232.175781 298.816406 232.175781 Z M 298.816406 236.75 L 289.269531 236.75 C 289.078125 236.75 288.921875 236.597656 288.921875 236.402344 C 288.921875 236.207031 289.078125 236.054688 289.269531 236.054688 L 298.816406 236.054688 C 299.011719 236.054688 299.164062 236.207031 299.164062 236.402344 C 299.164062 236.597656 299.011719 236.75 298.816406 236.75 Z M 298.816406 241.328125 L 289.269531 241.328125 C 289.078125 241.328125 288.921875 241.175781 288.921875 240.980469 C 288.921875 240.78125 289.078125 240.632812 289.269531 240.632812 L 298.816406 240.632812 C 299.011719 240.632812 299.164062 240.785156 299.164062 240.980469 C 299.164062 241.175781 299.011719 241.328125 298.816406 241.328125 Z M 298.816406 245.90625 L 289.269531 245.90625 C 289.078125 245.90625 288.921875 245.753906 288.921875 245.558594 C 288.921875 245.363281 289.078125 245.210938 289.269531 245.210938 L 298.816406 245.210938 C 299.011719 245.210938 299.164062 245.363281 299.164062 245.558594 C 299.164062 245.753906 299.011719 245.90625 298.816406 245.90625 Z M 298.816406 250.480469 L 289.269531 250.480469 C 289.078125 250.480469 288.921875 250.332031 288.921875 250.136719 C 288.921875 249.941406 289.078125 249.789062 289.269531 249.789062 L 298.816406 249.789062 C 299.011719 249.789062 299.164062 249.941406 299.164062 250.136719 C 299.164062 250.332031 299.011719 250.480469 298.816406 250.480469 Z M 298.816406 255.058594 L 276.28125 255.058594 C 276.09375 255.058594 275.933594 254.910156 275.933594 254.710938 C 275.933594 254.515625 276.09375 254.363281 276.28125 254.363281 L 298.816406 254.363281 C 299.011719 254.363281 299.164062 254.515625 299.164062 254.710938 C 299.164062 254.90625 299.011719 255.058594 298.816406 255.058594 Z M 298.816406 259.636719 L 276.28125 259.636719 C 276.09375 259.636719 275.933594 259.484375 275.933594 259.289062 C 275.933594 259.09375 276.09375 258.941406 276.28125 258.941406 L 298.816406 258.941406 C 299.011719 258.941406 299.164062 259.09375 299.164062 259.289062 C 299.164062 259.484375 299.011719 259.636719 298.816406 259.636719 Z M 298.816406 264.214844 L 276.28125 264.214844 C 276.09375 264.214844 275.933594 264.0625 275.933594 263.867188 C 275.933594 263.671875 276.09375 263.519531 276.28125 263.519531 L 298.816406 263.519531 C 299.011719 263.519531 299.164062 263.671875 299.164062 263.867188 C 299.164062 264.0625 299.011719 264.214844 298.816406 264.214844 Z M 275.933594 236.402344 C 275.933594 236.207031 276.09375 236.054688 276.28125 236.054688 L 285.835938 236.054688 C 286.019531 236.054688 286.183594 236.207031 286.183594 236.402344 L 286.183594 250.136719 C 286.183594 250.332031 286.019531 250.480469 285.835938 250.480469 L 276.28125 250.480469 C 276.09375 250.480469 275.933594 250.332031 275.933594 250.136719 Z M 300.921875 226.917969 L 274.179688 226.917969 C 272.640625 226.917969 271.382812 228.175781 271.382812 229.726562 L 271.382812 265.976562 C 271.382812 267.519531 272.640625 268.773438 274.179688 268.773438 L 300.921875 268.773438 C 302.46875 268.773438 303.722656 267.519531 303.722656 265.976562 L 303.722656 229.726562 C 303.722656 228.175781 302.46875 226.917969 300.921875 226.917969 " fill-opacity="1" fill-rule="nonzero"/></g><g clip-path="url(#65562b2c91)"><path fill="#d9d9d9" d="M 298.816406 225.523438 L 298.816406 224.820312 C 298.816406 223.28125 297.5625 222.023438 296.019531 222.023438 L 269.28125 222.023438 C 267.734375 222.023438 266.476562 223.28125 266.476562 224.820312 L 266.476562 261.070312 C 266.476562 262.617188 267.734375 263.875 269.28125 263.875 L 269.988281 263.875 L 269.984375 229.726562 C 269.984375 227.410156 271.867188 225.523438 274.179688 225.523438 L 298.816406 225.523438 " fill-opacity="1" fill-rule="nonzero"/></g><path fill="#a6a6a6" d="M 919.085938 422.074219 C 913.84375 422.074219 909.574219 426.34375 909.574219 431.585938 C 909.574219 436.832031 913.84375 441.097656 919.085938 441.097656 C 924.332031 441.097656 928.597656 436.832031 928.597656 431.585938 C 928.597656 426.34375 924.332031 422.074219 919.085938 422.074219 Z M 919.085938 439.699219 C 916.816406 439.699219 914.765625 438.757812 913.285156 437.25 C 914.058594 434.714844 916.382812 432.96875 919.074219 432.960938 C 919.078125 432.960938 919.078125 432.960938 919.085938 432.960938 C 919.09375 432.960938 919.09375 432.960938 919.101562 432.960938 C 921.78125 432.96875 924.109375 434.714844 924.890625 437.25 C 923.410156 438.757812 921.355469 439.699219 919.085938 439.699219 Z M 916.320312 428.800781 C 916.320312 427.269531 917.566406 426.035156 919.085938 426.035156 C 920.609375 426.035156 921.851562 427.277344 921.851562 428.800781 C 921.851562 430.324219 920.617188 431.558594 919.09375 431.566406 C 919.09375 431.566406 919.085938 431.566406 919.085938 431.566406 C 919.085938 431.566406 919.078125 431.566406 919.078125 431.566406 C 917.558594 431.566406 916.320312 430.328125 916.320312 428.800781 Z M 925.902344 435.980469 C 925.078125 434.136719 923.554688 432.730469 921.699219 432.039062 C 922.640625 431.277344 923.25 430.105469 923.25 428.800781 C 923.25 426.503906 921.382812 424.636719 919.085938 424.636719 C 916.789062 424.636719 914.925781 426.507812 914.925781 428.800781 C 914.925781 430.105469 915.53125 431.273438 916.476562 432.039062 C 914.617188 432.730469 913.09375 434.136719 912.269531 435.980469 C 911.453125 434.707031 910.972656 433.207031 910.972656 431.585938 C 910.972656 427.109375 914.609375 423.472656 919.085938 423.472656 C 923.5625 423.472656 927.203125 427.109375 927.203125 431.585938 C 927.203125 433.207031 926.71875 434.714844 925.902344 435.980469 Z M 925.902344 435.980469 " fill-opacity="1" fill-rule="nonzero"/><g clip-path="url(#3b6fd49e1e)"><path fill="#a6a6a6" d="M 938.640625 430.886719 L 936.476562 430.886719 C 936.121094 421.84375 928.828125 414.554688 919.785156 414.199219 L 919.785156 412.03125 C 919.785156 411.648438 919.472656 411.335938 919.085938 411.335938 C 918.703125 411.335938 918.390625 411.648438 918.390625 412.03125 L 918.390625 414.199219 C 909.34375 414.554688 902.054688 421.84375 901.699219 430.886719 L 899.535156 430.886719 C 899.148438 430.886719 898.835938 431.203125 898.835938 431.585938 C 898.835938 431.96875 899.148438 432.285156 899.535156 432.285156 L 901.699219 432.285156 C 902.054688 441.328125 909.34375 448.617188 918.390625 448.976562 L 918.390625 451.140625 C 918.390625 451.523438 918.703125 451.839844 919.085938 451.839844 C 919.472656 451.839844 919.785156 451.523438 919.785156 451.140625 L 919.785156 448.976562 C 928.828125 448.617188 936.121094 441.328125 936.476562 432.285156 L 938.640625 432.285156 C 939.023438 432.285156 939.339844 431.96875 939.339844 431.585938 C 939.339844 431.203125 939.023438 430.886719 938.640625 430.886719 Z M 935.078125 430.886719 L 932.601562 430.886719 C 932.25 423.972656 926.699219 418.421875 919.785156 418.066406 L 919.785156 415.59375 C 928.0625 415.949219 934.722656 422.613281 935.078125 430.886719 Z M 930.785156 432.285156 L 931.210938 432.285156 C 930.855469 438.429688 925.929688 443.351562 919.785156 443.710938 L 919.785156 443.285156 C 919.785156 442.898438 919.472656 442.585938 919.085938 442.585938 C 918.703125 442.585938 918.390625 442.898438 918.390625 443.285156 L 918.390625 443.710938 C 912.242188 443.351562 907.320312 438.429688 906.964844 432.285156 L 907.390625 432.285156 C 907.773438 432.285156 908.089844 431.96875 908.089844 431.585938 C 908.089844 431.203125 907.773438 430.886719 907.390625 430.886719 L 906.964844 430.886719 C 907.3125 424.742188 912.242188 419.820312 918.390625 419.464844 L 918.390625 419.890625 C 918.390625 420.273438 918.703125 420.585938 919.085938 420.585938 C 919.472656 420.585938 919.785156 420.273438 919.785156 419.890625 L 919.785156 419.464844 C 925.929688 419.8125 930.855469 424.742188 931.210938 430.886719 L 930.785156 430.886719 C 930.398438 430.886719 930.085938 431.203125 930.085938 431.585938 C 930.085938 431.96875 930.398438 432.285156 930.785156 432.285156 Z M 918.390625 415.59375 L 918.390625 418.074219 C 911.476562 418.421875 905.921875 423.972656 905.566406 430.886719 L 903.09375 430.886719 C 903.453125 422.613281 910.113281 415.949219 918.390625 415.59375 Z M 903.09375 432.285156 L 905.574219 432.285156 C 905.921875 439.199219 911.476562 444.75 918.390625 445.105469 L 918.390625 447.585938 C 910.113281 447.222656 903.453125 440.558594 903.09375 432.285156 Z M 919.785156 447.578125 L 919.785156 445.097656 C 926.699219 444.75 932.25 439.199219 932.605469 432.285156 L 935.085938 432.285156 C 934.722656 440.558594 928.0625 447.222656 919.785156 447.578125 Z M 919.785156 447.578125 " fill-opacity="1" fill-rule="nonzero"/></g><g clip-path="url(#3b333dfec4)"><path fill="#d9d9d9" d="M 71.054688 68.007812 L 48.890625 68.007812 L 48.890625 62.691406 C 49.464844 62.886719 50.078125 62.988281 50.699219 62.988281 C 52.199219 62.988281 53.605469 62.40625 54.667969 61.347656 C 55.726562 60.289062 56.308594 58.878906 56.308594 57.382812 C 56.308594 55.882812 55.730469 54.480469 54.679688 53.421875 C 53.628906 52.367188 52.226562 51.78125 50.730469 51.773438 C 50.09375 51.769531 49.476562 51.871094 48.890625 52.070312 L 48.890625 45.839844 C 48.890625 45.332031 48.480469 44.921875 47.972656 44.921875 L 39.886719 44.921875 C 39.523438 44.921875 39.195312 45.136719 39.046875 45.472656 C 38.902344 45.804688 38.964844 46.191406 39.210938 46.457031 C 39.851562 47.152344 40.203125 48.058594 40.207031 49 C 40.210938 50.007812 39.820312 50.957031 39.105469 51.671875 C 38.390625 52.390625 37.441406 52.789062 36.4375 52.789062 C 36.4375 52.789062 36.433594 52.789062 36.429688 52.789062 C 35.421875 52.789062 34.476562 52.398438 33.761719 51.6875 C 33.046875 50.972656 32.65625 50.023438 32.65625 49.011719 C 32.65625 48.0625 33.007812 47.15625 33.648438 46.457031 C 33.894531 46.191406 33.960938 45.804688 33.8125 45.46875 C 33.667969 45.136719 33.339844 44.921875 32.976562 44.921875 L 28.019531 44.921875 C 25.789062 44.921875 23.972656 46.738281 23.972656 48.96875 L 23.972656 76.503906 C 23.972656 76.839844 24.15625 77.148438 24.449219 77.308594 C 24.742188 77.46875 25.101562 77.457031 25.382812 77.277344 C 26 76.882812 26.714844 76.679688 27.453125 76.6875 C 28.457031 76.699219 29.394531 77.097656 30.097656 77.804688 C 30.796875 78.515625 31.183594 79.460938 31.183594 80.464844 C 31.183594 82.546875 29.488281 84.242188 27.40625 84.242188 C 26.6875 84.242188 25.988281 84.035156 25.382812 83.652344 C 25.101562 83.472656 24.742188 83.460938 24.449219 83.621094 C 24.15625 83.78125 23.972656 84.089844 23.972656 84.425781 L 23.972656 88.875 C 23.972656 91.105469 25.789062 92.921875 28.019531 92.921875 L 67.925781 92.921875 C 70.15625 92.921875 71.972656 91.105469 71.972656 88.875 L 71.972656 84.1875 C 71.972656 83.835938 71.773438 83.519531 71.460938 83.363281 C 71.148438 83.210938 70.773438 83.246094 70.5 83.460938 C 69.832031 83.972656 69.039062 84.242188 68.199219 84.242188 C 66.117188 84.242188 64.421875 82.546875 64.421875 80.464844 C 64.421875 79.457031 64.8125 78.507812 65.519531 77.796875 C 66.226562 77.085938 67.171875 76.691406 68.179688 76.6875 C 68.1875 76.6875 68.191406 76.6875 68.199219 76.6875 C 69.039062 76.6875 69.832031 76.957031 70.5 77.46875 C 70.773438 77.683594 71.148438 77.71875 71.460938 77.566406 C 71.773438 77.410156 71.972656 77.09375 71.972656 76.742188 L 71.972656 68.921875 C 71.972656 68.417969 71.5625 68.007812 71.054688 68.007812 Z M 25.804688 48.96875 C 25.804688 47.75 26.800781 46.753906 28.019531 46.753906 L 31.296875 46.753906 C 30.984375 47.460938 30.824219 48.226562 30.824219 49.011719 C 30.824219 50.511719 31.40625 51.921875 32.46875 52.984375 C 33.527344 54.039062 34.933594 54.621094 36.429688 54.621094 C 36.433594 54.621094 36.4375 54.621094 36.441406 54.621094 C 37.9375 54.617188 39.34375 54.03125 40.402344 52.964844 C 41.460938 51.902344 42.042969 50.492188 42.039062 48.996094 C 42.039062 48.21875 41.875 47.457031 41.566406 46.753906 L 47.058594 46.753906 L 47.058594 53.5625 C 47.058594 53.90625 47.25 54.21875 47.554688 54.378906 C 47.859375 54.535156 48.226562 54.507812 48.507812 54.308594 C 49.148438 53.847656 49.90625 53.605469 50.699219 53.605469 C 50.707031 53.605469 50.714844 53.605469 50.71875 53.605469 C 51.726562 53.609375 52.671875 54.003906 53.378906 54.714844 C 54.085938 55.425781 54.476562 56.371094 54.476562 57.382812 C 54.476562 59.464844 52.78125 61.15625 50.699219 61.15625 C 49.90625 61.15625 49.148438 60.914062 48.507812 60.457031 C 48.226562 60.253906 47.859375 60.230469 47.554688 60.386719 C 47.25 60.542969 47.058594 60.855469 47.058594 61.199219 L 47.058594 68.007812 L 25.804688 68.007812 Z M 25.804688 88.875 L 25.804688 85.839844 C 26.320312 85.992188 26.859375 86.074219 27.40625 86.074219 C 28.90625 86.074219 30.3125 85.488281 31.375 84.429688 C 32.433594 83.371094 33.015625 81.960938 33.015625 80.464844 C 33.015625 78.976562 32.441406 77.574219 31.398438 76.519531 C 30.355469 75.464844 28.960938 74.875 27.472656 74.855469 C 26.902344 74.851562 26.34375 74.929688 25.804688 75.089844 L 25.804688 69.839844 L 47.058594 69.839844 L 47.058594 74.996094 C 46.667969 74.90625 46.269531 74.859375 45.867188 74.855469 C 45.851562 74.855469 45.832031 74.855469 45.816406 74.855469 C 44.332031 74.855469 42.9375 75.433594 41.875 76.480469 C 40.800781 77.542969 40.210938 78.953125 40.207031 80.457031 C 40.207031 81.957031 40.789062 83.367188 41.847656 84.425781 C 42.90625 85.488281 44.316406 86.074219 45.816406 86.074219 C 46.234375 86.074219 46.652344 86.027344 47.058594 85.933594 L 47.058594 91.089844 L 28.019531 91.089844 C 26.800781 91.089844 25.804688 90.097656 25.804688 88.875 Z M 70.140625 75.199219 C 69.527344 74.972656 68.871094 74.855469 68.199219 74.855469 C 68.191406 74.855469 68.179688 74.855469 68.171875 74.855469 C 66.675781 74.863281 65.269531 75.449219 64.21875 76.503906 C 63.167969 77.5625 62.589844 78.96875 62.589844 80.464844 C 62.589844 81.960938 63.175781 83.371094 64.234375 84.429688 C 65.292969 85.488281 66.699219 86.074219 68.199219 86.074219 C 68.871094 86.074219 69.527344 85.957031 70.140625 85.730469 L 70.140625 88.875 C 70.140625 90.097656 69.148438 91.089844 67.925781 91.089844 L 48.890625 91.089844 L 48.890625 84.632812 C 48.890625 84.3125 48.722656 84.015625 48.449219 83.851562 C 48.175781 83.683594 47.835938 83.671875 47.550781 83.820312 C 47.011719 84.097656 46.429688 84.242188 45.816406 84.242188 C 44.804688 84.242188 43.855469 83.847656 43.144531 83.132812 C 42.429688 82.417969 42.039062 81.46875 42.039062 80.457031 C 42.042969 79.449219 42.441406 78.5 43.164062 77.785156 C 43.886719 77.066406 44.84375 76.679688 45.851562 76.6875 C 46.453125 76.695312 47.023438 76.835938 47.550781 77.109375 C 47.835938 77.257812 48.175781 77.246094 48.449219 77.078125 C 48.722656 76.914062 48.890625 76.617188 48.890625 76.296875 L 48.890625 69.839844 L 70.140625 69.839844 Z M 70.140625 75.199219 " fill-opacity="1" fill-rule="nonzero"/></g><path fill="#d9d9d9" d="M 82.742188 37.925781 C 82.980469 37.507812 83.117188 37.027344 83.117188 36.511719 C 83.117188 34.933594 81.832031 33.652344 80.253906 33.652344 C 78.679688 33.652344 77.394531 34.9375 77.394531 36.511719 C 77.394531 37.027344 77.53125 37.507812 77.769531 37.925781 C 76.503906 38.753906 75.71875 40.171875 75.71875 41.722656 L 75.71875 42.773438 C 75.71875 43.171875 76.042969 43.492188 76.4375 43.492188 L 84.074219 43.492188 C 84.46875 43.492188 84.792969 43.171875 84.792969 42.773438 L 84.792969 41.722656 C 84.792969 40.804688 84.519531 39.917969 84 39.160156 C 83.660156 38.667969 83.234375 38.25 82.742188 37.925781 Z M 80.253906 35.089844 C 81.039062 35.089844 81.675781 35.730469 81.675781 36.511719 C 81.675781 37.296875 81.039062 37.933594 80.253906 37.933594 C 79.472656 37.933594 78.835938 37.296875 78.835938 36.511719 C 78.835938 35.730469 79.472656 35.089844 80.253906 35.089844 Z M 83.351562 42.054688 L 77.160156 42.054688 L 77.160156 41.722656 C 77.160156 40.5625 77.800781 39.515625 78.8125 38.980469 C 79.234375 39.230469 79.730469 39.375 80.253906 39.375 C 80.78125 39.375 81.273438 39.230469 81.699219 38.980469 C 82.710938 39.515625 83.351562 40.558594 83.351562 41.722656 Z M 83.351562 42.054688 " fill-opacity="1" fill-rule="nonzero"/><g clip-path="url(#c0ff4e7250)"><path fill="#d9d9d9" d="M 90.679688 40.613281 L 89.097656 39.753906 L 89.097656 38.683594 L 90.679688 37.824219 C 91.011719 37.640625 91.167969 37.25 91.050781 36.890625 L 90.359375 34.757812 C 90.242188 34.398438 89.886719 34.171875 89.511719 34.222656 L 87.722656 34.457031 L 87.09375 33.589844 L 87.867188 31.960938 C 88.03125 31.621094 87.925781 31.210938 87.621094 30.988281 L 85.804688 29.671875 C 85.5 29.449219 85.078125 29.476562 84.804688 29.734375 L 83.496094 30.976562 L 82.476562 30.644531 L 82.148438 28.875 C 82.082031 28.5 81.753906 28.230469 81.378906 28.230469 L 79.132812 28.230469 C 78.753906 28.230469 78.429688 28.5 78.363281 28.875 L 78.03125 30.644531 L 77.015625 30.976562 L 75.707031 29.734375 C 75.433594 29.476562 75.011719 29.449219 74.703125 29.671875 L 72.890625 30.988281 C 72.582031 31.210938 72.480469 31.621094 72.640625 31.960938 L 73.417969 33.589844 L 72.789062 34.457031 L 71 34.222656 C 70.625 34.171875 70.269531 34.398438 70.152344 34.757812 L 69.871094 35.617188 L 59.417969 35.617188 C 58.941406 35.617188 58.554688 36.003906 58.554688 36.480469 L 58.554688 44.300781 C 58.554688 44.628906 58.742188 44.929688 59.039062 45.074219 C 59.332031 45.222656 59.683594 45.1875 59.945312 44.984375 C 60.621094 44.46875 61.425781 44.195312 62.277344 44.195312 C 64.386719 44.195312 66.105469 45.910156 66.105469 48.023438 C 66.105469 50.132812 64.386719 51.851562 62.277344 51.851562 C 61.425781 51.851562 60.621094 51.578125 59.945312 51.058594 C 59.683594 50.859375 59.332031 50.824219 59.039062 50.96875 C 58.742188 51.113281 58.554688 51.414062 58.554688 51.746094 L 58.554688 59.566406 C 58.554688 60.042969 58.941406 60.429688 59.417969 60.429688 L 65.875 60.429688 C 65.738281 60.90625 65.667969 61.402344 65.667969 61.90625 C 65.667969 64.875 68.085938 67.292969 71.054688 67.292969 C 74.027344 67.292969 76.441406 64.875 76.441406 61.90625 C 76.441406 61.402344 76.375 60.90625 76.238281 60.429688 L 82.503906 60.429688 C 82.980469 60.429688 83.367188 60.042969 83.367188 59.566406 L 83.367188 53.425781 C 83.789062 53.527344 84.222656 53.578125 84.660156 53.578125 C 87.722656 53.578125 90.214844 51.085938 90.214844 48.023438 C 90.214844 47.0625 89.96875 46.117188 89.496094 45.285156 C 89.25 44.851562 88.941406 44.449219 88.589844 44.097656 L 89.507812 44.21875 C 89.882812 44.265625 90.242188 44.042969 90.359375 43.683594 L 91.050781 41.546875 C 91.167969 41.1875 91.011719 40.796875 90.679688 40.613281 Z M 84.660156 51.851562 C 84.039062 51.851562 83.449219 51.707031 82.902344 51.425781 C 82.632812 51.285156 82.3125 51.296875 82.054688 51.453125 C 81.796875 51.609375 81.640625 51.890625 81.640625 52.191406 L 81.640625 58.703125 L 74.929688 58.703125 C 74.617188 58.703125 74.328125 58.871094 74.175781 59.140625 C 74.023438 59.414062 74.027344 59.746094 74.191406 60.011719 C 74.535156 60.582031 74.714844 61.234375 74.714844 61.90625 C 74.714844 63.921875 73.074219 65.5625 71.054688 65.5625 C 69.039062 65.5625 67.398438 63.921875 67.398438 61.90625 C 67.398438 61.234375 67.578125 60.582031 67.921875 60.011719 C 68.085938 59.746094 68.089844 59.414062 67.9375 59.140625 C 67.785156 58.867188 67.496094 58.703125 67.183594 58.703125 L 60.28125 58.703125 L 60.28125 53.210938 C 60.914062 53.453125 61.585938 53.578125 62.277344 53.578125 C 65.339844 53.578125 67.832031 51.085938 67.832031 48.023438 C 67.832031 44.960938 65.339844 42.46875 62.277344 42.46875 C 61.585938 42.46875 60.914062 42.59375 60.28125 42.835938 L 60.28125 37.34375 L 69.449219 37.34375 C 69.503906 37.542969 69.636719 37.71875 69.832031 37.824219 L 71.414062 38.683594 L 71.414062 39.753906 L 69.832031 40.617188 C 69.496094 40.796875 69.339844 41.1875 69.457031 41.546875 L 70.152344 43.683594 C 70.269531 44.042969 70.625 44.265625 71 44.21875 L 72.789062 43.980469 L 73.417969 44.847656 L 72.640625 46.476562 C 72.480469 46.816406 72.582031 47.226562 72.890625 47.449219 L 74.703125 48.769531 C 75.011719 48.992188 75.433594 48.964844 75.707031 48.703125 L 77.015625 47.460938 L 78.03125 47.792969 L 78.363281 49.566406 C 78.429688 49.9375 78.753906 50.207031 79.132812 50.207031 L 81.378906 50.207031 C 81.753906 50.207031 82.078125 49.9375 82.148438 49.566406 L 82.476562 47.792969 L 83.496094 47.460938 L 84.804688 48.703125 C 85.078125 48.960938 85.5 48.992188 85.804688 48.769531 L 87.621094 47.449219 C 87.925781 47.226562 88.03125 46.816406 87.867188 46.476562 L 87.269531 45.21875 C 88.042969 45.9375 88.488281 46.941406 88.488281 48.023438 C 88.488281 50.132812 86.773438 51.851562 84.660156 51.851562 Z M 89.066406 42.574219 L 87.464844 42.363281 C 87.179688 42.328125 86.894531 42.449219 86.726562 42.679688 L 85.546875 44.304688 C 85.378906 44.535156 85.351562 44.84375 85.472656 45.101562 L 86.171875 46.5625 L 85.410156 47.113281 L 84.238281 46 C 84.03125 45.804688 83.730469 45.734375 83.457031 45.824219 L 81.546875 46.445312 C 81.273438 46.53125 81.070312 46.765625 81.019531 47.046875 L 80.722656 48.636719 L 79.785156 48.636719 L 79.492188 47.046875 C 79.4375 46.765625 79.234375 46.53125 78.960938 46.445312 L 77.054688 45.824219 C 76.78125 45.734375 76.480469 45.804688 76.273438 46 L 75.097656 47.113281 L 74.339844 46.5625 L 75.035156 45.101562 C 75.160156 44.84375 75.132812 44.535156 74.960938 44.304688 L 73.785156 42.679688 C 73.613281 42.449219 73.332031 42.328125 73.046875 42.363281 L 71.441406 42.574219 L 71.152344 41.683594 L 72.574219 40.910156 C 72.828125 40.773438 72.984375 40.511719 72.984375 40.222656 L 72.984375 38.214844 C 72.984375 37.929688 72.828125 37.664062 72.574219 37.527344 L 71.152344 36.753906 L 71.441406 35.863281 L 73.046875 36.074219 C 73.332031 36.113281 73.613281 35.988281 73.785156 35.757812 L 74.960938 34.132812 C 75.132812 33.902344 75.160156 33.59375 75.035156 33.335938 L 74.339844 31.875 L 75.097656 31.324219 L 76.273438 32.4375 C 76.480469 32.636719 76.78125 32.703125 77.054688 32.613281 L 78.960938 31.996094 C 79.234375 31.90625 79.4375 31.675781 79.492188 31.390625 L 79.785156 29.800781 L 80.722656 29.800781 L 81.019531 31.390625 C 81.070312 31.675781 81.273438 31.90625 81.546875 31.996094 L 83.457031 32.613281 C 83.730469 32.703125 84.03125 32.636719 84.238281 32.4375 L 85.410156 31.324219 L 86.171875 31.875 L 85.472656 33.335938 C 85.351562 33.59375 85.378906 33.902344 85.546875 34.132812 L 86.726562 35.757812 C 86.894531 35.988281 87.179688 36.113281 87.464844 36.074219 L 89.066406 35.863281 L 89.355469 36.753906 L 87.9375 37.527344 C 87.683594 37.664062 87.527344 37.929688 87.527344 38.214844 L 87.527344 40.222656 C 87.527344 40.507812 87.683594 40.773438 87.9375 40.910156 L 89.355469 41.683594 Z M 89.066406 42.574219 " fill-opacity="1" fill-rule="nonzero"/></g></svg>