<?xml version="1.0" encoding="iso-8859-1"?>
<!-- Uploaded to: SVG Repo, www.svgrepo.com, Generator: SVG Repo Mixer Tools -->
<svg version="1.1" id="Layer_1" xmlns="http://www.w3.org/2000/svg" xmlns:xlink="http://www.w3.org/1999/xlink" 
	 viewBox="0 0 512 512" xml:space="preserve">
<path style="fill:#D94700;" d="M361.739,400.696H116.87c-9.22,0-16.696-7.475-16.696-16.696V150.261
	c0-9.22,7.475-16.696,16.696-16.696h111.304c9.22,0,16.696,7.475,16.696,16.696v150.261h116.87c9.22,0,16.696,7.475,16.696,16.696
	V384C378.435,393.22,370.96,400.696,361.739,400.696z"/>
<path style="fill:#C03F00;" d="M378.435,267.13V384c0,9.216-7.48,16.696-16.696,16.696H116.87c-9.216,0-16.696-7.48-16.696-16.696
	V267.13H378.435z"/>
<g>
	<path style="fill:#FF5600;" d="M220.315,331.958l137.484,68.737h3.94c9.216,0,16.696-7.48,16.696-16.696v-66.783
		c0-9.216-7.48-16.696-16.696-16.696H228.174L220.315,331.958z"/>
	<path style="fill:#FF5600;" d="M495.304,66.783h-267.13c-9.216,0-16.696,7.48-16.696,16.696v233.739
		c0,9.216,7.48,16.696,16.696,16.696h267.13c9.216,0,16.696-7.48,16.696-16.696V83.478C512,74.262,504.52,66.783,495.304,66.783z"/>
</g>
<path style="fill:#D94700;" d="M512,200.348v116.87c0,9.216-7.48,16.696-16.696,16.696h-267.13c-9.216,0-16.696-7.48-16.696-16.696
	v-116.87H512z"/>
<rect x="288.043" y="176.735" transform="matrix(-0.7071 0.7071 -0.7071 -0.7071 673.6967 121.6414)" style="fill:#FFAA00;" width="47.226" height="47.226"/>
<polygon style="fill:#F28D00;" points="345.043,200.348 278.261,200.348 311.652,233.739 "/>
<rect x="388.216" y="176.736" transform="matrix(-0.7071 0.7071 -0.7071 -0.7071 844.705 50.8096)" style="fill:#FFAA00;" width="47.226" height="47.226"/>
<path style="fill:#E6F3FF;" d="M111.304,495.304c0,9.217-7.479,16.696-16.696,16.696H50.087c-9.217,0-16.696-7.479-16.696-16.696
	V130.228c0-5.967,3.184-11.489,8.359-14.467c5.152-2.99,11.532-2.967,16.707,0.022c15.239,8.826,12.544,8.826,27.783,0
	c5.163-3,11.543-3.011,16.707-0.022c5.173,2.979,8.359,8.5,8.359,14.467v365.076H111.304z"/>
<path style="fill:#B8C9D9;" d="M94.609,512c9.217,0,16.696-7.479,16.696-16.696V130.228c0-5.967-3.184-11.489-8.359-14.467
	c-5.163-2.99-11.543-2.979-16.707,0.022c-7.62,4.413-10.755,6.619-13.891,6.619V512H94.609z"/>
<path style="fill:#FF5600;" d="M72.348,144.696C32.456,144.696,0,112.239,0,72.348S32.456,0,72.348,0s72.348,32.456,72.348,72.348
	S112.239,144.696,72.348,144.696z"/>
<path style="fill:#D94700;" d="M144.696,72.348C144.696,32.456,112.239,0,72.348,0v144.696
	C112.239,144.696,144.696,112.239,144.696,72.348z"/>
<polygon style="fill:#F28D00;" points="445.217,200.348 378.435,200.348 411.826,233.739 "/>
</svg>